<svg width="166" height="39" viewBox="0 0 166 39" fill="none" xmlns="http://www.w3.org/2000/svg">
<path d="M103.102 1.83389C102.8 1.83389 102.559 1.62875 102.559 1.36325C102.559 1.09775 102.8 0.892578 103.102 0.892578C103.403 0.892578 103.645 1.09775 103.645 1.36325C103.645 1.62875 103.403 1.83389 103.102 1.83389Z" fill="#EFEEED"/>
<path d="M92.811 2.49782C92.0871 2.49782 91.496 1.99096 91.496 1.36341C91.496 0.73587 92.0871 0.229004 92.811 0.229004C93.5348 0.229004 94.126 0.73587 94.126 1.36341C94.126 1.99096 93.5348 2.49782 92.811 2.49782Z" fill="#EFEEED"/>
<path d="M82.5186 2.72742C81.6524 2.72742 80.9502 2.11686 80.9502 1.36371C80.9502 0.610556 81.6524 0 82.5186 0C83.3847 0 84.0869 0.610556 84.0869 1.36371C84.0869 2.11686 83.3847 2.72742 82.5186 2.72742Z" fill="#EFEEED"/>
<path d="M72.2303 2.67895C71.3978 2.67895 70.7222 2.08761 70.7222 1.36352C70.7222 0.639431 71.3978 0.0480957 72.2303 0.0480957C73.0627 0.0480957 73.7383 0.639431 73.7383 1.36352C73.7383 2.08761 73.0627 2.67895 72.2303 2.67895Z" fill="#EFEEED"/>
<path d="M61.9389 2.18422C61.4192 2.18422 60.9979 1.81682 60.9979 1.3636C60.9979 0.910371 61.4192 0.542969 61.9389 0.542969C62.4586 0.542969 62.8799 0.910371 62.8799 1.3636C62.8799 1.81682 62.4586 2.18422 61.9389 2.18422Z" fill="#EFEEED"/>
<path d="M51.647 1.46074C51.5865 1.46074 51.5381 1.41229 51.5381 1.36381C51.5381 1.31534 51.5865 1.26685 51.647 1.26685C51.7075 1.26685 51.7559 1.31534 51.7559 1.36381C51.7559 1.41229 51.7075 1.46074 51.647 1.46074Z" fill="#EFEEED"/>
<path d="M113.393 11.0662C112.886 11.0662 112.476 10.7162 112.476 10.2696C112.476 9.82313 112.886 9.47314 113.393 9.47314C113.899 9.47314 114.31 9.82313 114.31 10.2696C114.31 10.7162 113.899 11.0662 113.393 11.0662Z" fill="#EFEEED"/>
<path d="M103.102 11.9112C102.063 11.9112 101.22 11.1818 101.22 10.282C101.22 9.38222 102.063 8.65283 103.102 8.65283C104.142 8.65283 104.984 9.38222 104.984 10.282C104.984 11.1818 104.142 11.9112 103.102 11.9112Z" fill="#EFEEED"/>
<path d="M92.8107 11.9353C91.749 11.9353 90.9045 11.1992 90.9045 10.282C90.9045 9.36481 91.7611 8.62866 92.8107 8.62866C93.8602 8.62866 94.7168 9.36481 94.7168 10.282C94.7168 11.1992 93.8602 11.9353 92.8107 11.9353Z" fill="#EFEEED"/>
<path d="M82.5206 11.9353C81.459 11.9353 80.6145 11.1992 80.6145 10.282C80.6145 9.36481 81.471 8.62866 82.5206 8.62866C83.5702 8.62866 84.4268 9.36481 84.4268 10.282C84.4268 11.1992 83.5702 11.9353 82.5206 11.9353Z" fill="#EFEEED"/>
<path d="M72.2296 11.9353C71.168 11.9353 70.3235 11.1992 70.3235 10.282C70.3235 9.36481 71.18 8.62866 72.2296 8.62866C73.2792 8.62866 74.1357 9.36481 74.1357 10.282C74.1357 11.1992 73.2792 11.9353 72.2296 11.9353Z" fill="#EFEEED"/>
<path d="M61.9376 11.9353C60.876 11.9353 60.0315 11.1992 60.0315 10.282C60.0315 9.36481 60.888 8.62866 61.9376 8.62866C62.9872 8.62866 63.8438 9.36481 63.8438 10.282C63.8438 11.1992 62.9872 11.9353 61.9376 11.9353Z" fill="#EFEEED"/>
<path d="M51.6487 11.6575C50.7681 11.6575 50.0563 11.0421 50.0563 10.2697C50.0563 9.49734 50.7681 8.88184 51.6487 8.88184C52.5294 8.88184 53.2412 9.49734 53.2412 10.2697C53.2412 11.0421 52.5294 11.6575 51.6487 11.6575Z" fill="#EFEEED"/>
<path d="M41.3568 10.4521C41.248 10.4521 41.1512 10.3794 41.1512 10.2824C41.1512 10.1855 41.2359 10.1128 41.3568 10.1128C41.4778 10.1128 41.5625 10.1855 41.5625 10.2824C41.5625 10.3794 41.4778 10.4521 41.3568 10.4521Z" fill="#EFEEED"/>
<path d="M154.553 19.3465C154.457 19.3465 154.384 19.2738 154.384 19.2011C154.384 19.1284 154.457 19.0557 154.553 19.0557C154.65 19.0557 154.723 19.1284 154.723 19.2011C154.723 19.2738 154.65 19.3465 154.553 19.3465Z" fill="#EFEEED"/>
<path d="M144.264 20.1292C143.661 20.1292 143.178 19.7068 143.178 19.1879C143.178 18.669 143.661 18.2466 144.264 18.2466C144.867 18.2466 145.35 18.669 145.35 19.1879C145.35 19.7068 144.867 20.1292 144.264 20.1292Z" fill="#EFEEED"/>
<path d="M133.972 20.3466C133.236 20.3466 132.633 19.8277 132.633 19.1881C132.633 18.5485 133.236 18.0295 133.972 18.0295C134.708 18.0295 135.312 18.5485 135.312 19.1881C135.312 19.8277 134.708 20.3466 133.972 20.3466Z" fill="#EFEEED"/>
<path d="M123.683 20.1056C123.096 20.1056 122.621 19.695 122.621 19.1884C122.621 18.6819 123.096 18.2712 123.683 18.2712C124.269 18.2712 124.744 18.6819 124.744 19.1884C124.744 19.695 124.269 20.1056 123.683 20.1056Z" fill="#EFEEED"/>
<path d="M113.391 20.8175C112.354 20.8175 111.509 20.0813 111.509 19.1883C111.509 18.2952 112.354 17.5591 113.391 17.5591C114.429 17.5591 115.273 18.2952 115.273 19.1883C115.273 20.0813 114.429 20.8175 113.391 20.8175Z" fill="#EFEEED"/>
<path d="M103.102 20.8416C102.049 20.8416 101.196 20.1014 101.196 19.1882C101.196 18.2751 102.049 17.5349 103.102 17.5349C104.154 17.5349 105.008 18.2751 105.008 19.1882C105.008 20.1014 104.154 20.8416 103.102 20.8416Z" fill="#EFEEED"/>
<path d="M92.8107 20.8416C91.749 20.8416 90.9045 20.1054 90.9045 19.1882C90.9045 18.2711 91.7611 17.5349 92.8107 17.5349C93.8602 17.5349 94.7168 18.2711 94.7168 19.1882C94.7168 20.1054 93.8602 20.8416 92.8107 20.8416Z" fill="#EFEEED"/>
<path d="M82.5206 20.8416C81.4679 20.8416 80.6145 20.1014 80.6145 19.1882C80.6145 18.2751 81.4679 17.5349 82.5206 17.5349C83.5734 17.5349 84.4268 18.2751 84.4268 19.1882C84.4268 20.1014 83.5734 20.8416 82.5206 20.8416Z" fill="#EFEEED"/>
<path d="M72.2296 20.8416C71.168 20.8416 70.3235 20.1054 70.3235 19.1882C70.3235 18.2711 71.18 17.5349 72.2296 17.5349C73.2792 17.5349 74.1357 18.2711 74.1357 19.1882C74.1357 20.1054 73.2792 20.8416 72.2296 20.8416Z" fill="#EFEEED"/>
<path d="M61.9376 20.8416C60.8849 20.8416 60.0315 20.1014 60.0315 19.1882C60.0315 18.2751 60.8849 17.5349 61.9376 17.5349C62.9903 17.5349 63.8438 18.2751 63.8438 19.1882C63.8438 20.1014 62.9903 20.8416 61.9376 20.8416Z" fill="#EFEEED"/>
<path d="M51.6486 20.8416C50.5869 20.8416 49.7424 20.1054 49.7424 19.1882C49.7424 18.2711 50.599 17.5349 51.6486 17.5349C52.6981 17.5349 53.5547 18.2711 53.5547 19.1882C53.5547 20.1054 52.6981 20.8416 51.6486 20.8416Z" fill="#EFEEED"/>
<path d="M41.3579 20.4796C40.5376 20.4796 39.874 19.9003 39.874 19.1883C39.874 18.4763 40.5376 17.897 41.3579 17.897C42.1783 17.897 42.8418 18.4763 42.8418 19.1883C42.8418 19.9003 42.1783 20.4796 41.3579 20.4796Z" fill="#EFEEED"/>
<path d="M31.0784 20.4312C30.2942 20.4312 29.6548 19.876 29.6548 19.2002C29.6548 18.5244 30.2942 17.9692 31.0784 17.9692C31.8626 17.9692 32.502 18.5244 32.502 19.2002C32.502 19.876 31.8626 20.4312 31.0784 20.4312Z" fill="#EFEEED"/>
<path d="M20.7871 20.3948C20.0142 20.3948 19.3876 19.8545 19.3876 19.188C19.3876 18.5215 20.0142 17.9812 20.7871 17.9812C21.56 17.9812 22.1865 18.5215 22.1865 19.188C22.1865 19.8545 21.56 20.3948 20.7871 20.3948Z" fill="#EFEEED"/>
<path d="M10.4964 19.5381C10.2792 19.5381 10.0983 19.3812 10.0983 19.1881C10.0983 18.995 10.2792 18.8381 10.4964 18.8381C10.7136 18.8381 10.8945 18.995 10.8945 19.1881C10.8945 19.3812 10.7136 19.5381 10.4964 19.5381Z" fill="#EFEEED"/>
<path d="M164.833 28.1312C164.833 28.1312 164.809 28.1312 164.809 28.1069C164.809 28.0825 164.821 28.0825 164.833 28.0825C164.845 28.0825 164.857 28.0825 164.857 28.1069C164.857 28.1312 164.845 28.1312 164.833 28.1312Z" fill="#EFEEED"/>
<path d="M154.555 29.3617C153.747 29.3617 153.095 28.7945 153.095 28.1067C153.095 27.4188 153.747 26.8516 154.555 26.8516C155.363 26.8516 156.015 27.4188 156.015 28.1067C156.015 28.7945 155.363 29.3617 154.555 29.3617Z" fill="#EFEEED"/>
<path d="M144.264 29.76C143.202 29.76 142.358 29.0239 142.358 28.1067C142.358 27.1895 143.214 26.4534 144.264 26.4534C145.313 26.4534 146.17 27.1895 146.17 28.1067C146.17 29.0239 145.313 29.76 144.264 29.76Z" fill="#EFEEED"/>
<path d="M133.975 29.76C132.913 29.76 132.069 29.0239 132.069 28.1067C132.069 27.1895 132.925 26.4534 133.975 26.4534C135.024 26.4534 135.881 27.1895 135.881 28.1067C135.881 29.0239 135.024 29.76 133.975 29.76Z" fill="#EFEEED"/>
<path d="M123.683 29.76C122.621 29.76 121.777 29.0239 121.777 28.1067C121.777 27.1895 122.633 26.4534 123.683 26.4534C124.732 26.4534 125.589 27.1895 125.589 28.1067C125.589 29.0239 124.732 29.76 123.683 29.76Z" fill="#EFEEED"/>
<path d="M113.392 29.76C112.33 29.76 111.486 29.0239 111.486 28.1067C111.486 27.1895 112.342 26.4534 113.392 26.4534C114.441 26.4534 115.298 27.1895 115.298 28.1067C115.298 29.0239 114.441 29.76 113.392 29.76Z" fill="#EFEEED"/>
<path d="M103.102 29.76C102.04 29.76 101.196 29.0239 101.196 28.1067C101.196 27.1895 102.052 26.4534 103.102 26.4534C104.151 26.4534 105.008 27.1895 105.008 28.1067C105.008 29.0239 104.151 29.76 103.102 29.76Z" fill="#EFEEED"/>
<path d="M92.8107 29.76C91.749 29.76 90.9045 29.0239 90.9045 28.1067C90.9045 27.1895 91.7611 26.4534 92.8107 26.4534C93.8602 26.4534 94.7168 27.1895 94.7168 28.1067C94.7168 29.0239 93.8602 29.76 92.8107 29.76Z" fill="#EFEEED"/>
<path d="M82.5206 29.76C81.459 29.76 80.6145 29.0239 80.6145 28.1067C80.6145 27.1895 81.471 26.4534 82.5206 26.4534C83.5702 26.4534 84.4268 27.1895 84.4268 28.1067C84.4268 29.0239 83.5702 29.76 82.5206 29.76Z" fill="#EFEEED"/>
<path d="M72.2296 29.76C71.168 29.76 70.3235 29.0239 70.3235 28.1067C70.3235 27.1895 71.18 26.4534 72.2296 26.4534C73.2792 26.4534 74.1357 27.1895 74.1357 28.1067C74.1357 29.0239 73.2792 29.76 72.2296 29.76Z" fill="#EFEEED"/>
<path d="M61.9376 29.76C60.876 29.76 60.0315 29.0239 60.0315 28.1067C60.0315 27.1895 60.888 26.4534 61.9376 26.4534C62.9872 26.4534 63.8438 27.1895 63.8438 28.1067C63.8438 29.0239 62.9872 29.76 61.9376 29.76Z" fill="#EFEEED"/>
<path d="M51.6486 29.76C50.5869 29.76 49.7424 29.0239 49.7424 28.1067C49.7424 27.1895 50.599 26.4534 51.6486 26.4534C52.6981 26.4534 53.5547 27.1895 53.5547 28.1067C53.5547 29.0239 52.6981 29.76 51.6486 29.76Z" fill="#EFEEED"/>
<path d="M41.3566 29.76C40.2949 29.76 39.4504 29.0239 39.4504 28.1067C39.4504 27.1895 40.307 26.4534 41.3566 26.4534C42.4061 26.4534 43.2627 27.1895 43.2627 28.1067C43.2627 29.0239 42.4061 29.76 41.3566 29.76Z" fill="#EFEEED"/>
<path d="M31.0782 29.76C30.0166 29.76 29.1721 29.0239 29.1721 28.1067C29.1721 27.1895 30.0287 26.4534 31.0782 26.4534C32.1278 26.4534 32.9844 27.1895 32.9844 28.1067C32.9844 29.0239 32.1278 29.76 31.0782 29.76Z" fill="#EFEEED"/>
<path d="M20.7882 29.76C19.7266 29.76 18.8821 29.0239 18.8821 28.1067C18.8821 27.1895 19.7386 26.4534 20.7882 26.4534C21.8378 26.4534 22.6943 27.1895 22.6943 28.1067C22.6943 29.0239 21.8378 29.76 20.7882 29.76Z" fill="#EFEEED"/>
<path d="M10.4975 29.567C9.5686 29.567 8.80856 28.9153 8.80856 28.1068C8.80856 27.2982 9.55653 26.6465 10.4975 26.6465C11.4385 26.6465 12.1865 27.2982 12.1865 28.1068C12.1865 28.9153 11.4385 29.567 10.4975 29.567Z" fill="#EFEEED"/>
<path d="M0.205349 28.1796C0.205349 28.1796 0.120678 28.1432 0.120678 28.1069C0.120678 28.0705 0.15696 28.0342 0.205349 28.0342C0.253738 28.0342 0.290039 28.0705 0.290039 28.1069C0.290039 28.1432 0.253738 28.1796 0.205349 28.1796Z" fill="#EFEEED"/>
<path d="M164.832 37.1955C164.724 37.1955 164.627 37.1228 164.627 37.0258C164.627 36.9289 164.711 36.8562 164.832 36.8562C164.953 36.8562 165.038 36.9289 165.038 37.0258C165.038 37.1228 164.953 37.1955 164.832 37.1955Z" fill="#EFEEED"/>
<path d="M154.556 38.4009C153.676 38.4009 152.964 37.7796 152.964 37.0131C152.964 36.2466 153.676 35.6252 154.556 35.6252C155.435 35.6252 156.148 36.2466 156.148 37.0131C156.148 37.7796 155.435 38.4009 154.556 38.4009Z" fill="#EFEEED"/>
<path d="M144.264 38.4009C143.383 38.4009 142.672 37.7855 142.672 37.0131C142.672 36.2408 143.383 35.6252 144.264 35.6252C145.145 35.6252 145.856 36.2408 145.856 37.0131C145.856 37.7855 145.145 38.4009 144.264 38.4009Z" fill="#EFEEED"/>
<path d="M133.973 38.4009C133.092 38.4009 132.381 37.7855 132.381 37.0131C132.381 36.2408 133.092 35.6252 133.973 35.6252C134.854 35.6252 135.565 36.2408 135.565 37.0131C135.565 37.7855 134.854 38.4009 133.973 38.4009Z" fill="#EFEEED"/>
<path d="M123.684 38.4009C122.803 38.4009 122.091 37.7855 122.091 37.0131C122.091 36.2408 122.803 35.6252 123.684 35.6252C124.565 35.6252 125.276 36.2408 125.276 37.0131C125.276 37.7855 124.565 38.4009 123.684 38.4009Z" fill="#EFEEED"/>
<path d="M113.391 38.4009C112.51 38.4009 111.798 37.7855 111.798 37.0131C111.798 36.2408 112.51 35.6252 113.391 35.6252C114.272 35.6252 114.983 36.2408 114.983 37.0131C114.983 37.7855 114.272 38.4009 113.391 38.4009Z" fill="#EFEEED"/>
<path d="M103.102 38.4009C102.221 38.4009 101.509 37.7855 101.509 37.0131C101.509 36.2408 102.221 35.6252 103.102 35.6252C103.983 35.6252 104.694 36.2408 104.694 37.0131C104.694 37.7855 103.983 38.4009 103.102 38.4009Z" fill="#EFEEED"/>
<path d="M92.8099 38.4009C91.9292 38.4009 91.2174 37.7855 91.2174 37.0131C91.2174 36.2408 91.9292 35.6252 92.8099 35.6252C93.6906 35.6252 94.4023 36.2408 94.4023 37.0131C94.4023 37.7855 93.6906 38.4009 92.8099 38.4009Z" fill="#EFEEED"/>
<path d="M82.5198 38.4009C81.6403 38.4009 80.9274 37.7796 80.9274 37.0131C80.9274 36.2466 81.6403 35.6252 82.5198 35.6252C83.3993 35.6252 84.1123 36.2466 84.1123 37.0131C84.1123 37.7796 83.3993 38.4009 82.5198 38.4009Z" fill="#EFEEED"/>
<path d="M72.2288 38.4009C71.3481 38.4009 70.6364 37.7855 70.6364 37.0131C70.6364 36.2408 71.3481 35.6252 72.2288 35.6252C73.1095 35.6252 73.8213 36.2408 73.8213 37.0131C73.8213 37.7855 73.1095 38.4009 72.2288 38.4009Z" fill="#EFEEED"/>
<path d="M61.9378 38.4009C61.0571 38.4009 60.3453 37.7855 60.3453 37.0131C60.3453 36.2408 61.0571 35.6252 61.9378 35.6252C62.8185 35.6252 63.5303 36.2408 63.5303 37.0131C63.5303 37.7855 62.8185 38.4009 61.9378 38.4009Z" fill="#EFEEED"/>
<path d="M51.6487 38.4009C50.7681 38.4009 50.0563 37.7855 50.0563 37.0131C50.0563 36.2408 50.7681 35.6252 51.6487 35.6252C52.5294 35.6252 53.2412 36.2408 53.2412 37.0131C53.2412 37.7855 52.5294 38.4009 51.6487 38.4009Z" fill="#EFEEED"/>
<path d="M41.3568 38.4009C40.4761 38.4009 39.7643 37.7855 39.7643 37.0131C39.7643 36.2408 40.4761 35.6252 41.3568 35.6252C42.2374 35.6252 42.9492 36.2408 42.9492 37.0131C42.9492 37.7855 42.2374 38.4009 41.3568 38.4009Z" fill="#EFEEED"/>
<path d="M31.0794 38.4009C30.1987 38.4009 29.4869 37.7855 29.4869 37.0131C29.4869 36.2408 30.1987 35.6252 31.0794 35.6252C31.9601 35.6252 32.6719 36.2408 32.6719 37.0131C32.6719 37.7855 31.9601 38.4009 31.0794 38.4009Z" fill="#EFEEED"/>
<path d="M20.7874 38.4009C19.9067 38.4009 19.195 37.7855 19.195 37.0131C19.195 36.2408 19.9067 35.6252 20.7874 35.6252C21.6681 35.6252 22.3799 36.2408 22.3799 37.0131C22.3799 37.7855 21.6681 38.4009 20.7874 38.4009Z" fill="#EFEEED"/>
<path d="M10.4983 38.4009C9.61885 38.4009 8.90589 37.7796 8.90589 37.0131C8.90589 36.2466 9.61885 35.6252 10.4983 35.6252C11.3778 35.6252 12.0908 36.2466 12.0908 37.0131C12.0908 37.7796 11.3778 38.4009 10.4983 38.4009Z" fill="#EFEEED"/>
<path d="M0.205481 37.1955C0.096606 37.1955 -0.000169903 37.1228 -0.000169903 37.0258C-0.000169903 36.9289 0.0845087 36.8562 0.205481 36.8562C0.326454 36.8562 0.411133 36.9289 0.411133 37.0258C0.411133 37.1228 0.326454 37.1955 0.205481 37.1955Z" fill="#EFEEED"/>
</svg>
