<svg width="27" height="28" viewBox="0 0 27 28" fill="none" xmlns="http://www.w3.org/2000/svg">
<path d="M13.3392 6.89326C15.2427 6.89326 16.7858 5.35015 16.7858 3.44663C16.7858 1.54311 15.2427 0 13.3392 0C11.4357 0 9.89258 1.54311 9.89258 3.44663C9.89258 5.35015 11.4357 6.89326 13.3392 6.89326Z" fill="url(#paint0_linear_579_1216)"/>
<path d="M3.93247 22.8393C5.83599 22.8393 7.3791 21.2962 7.3791 19.3927C7.3791 17.4892 5.83599 15.946 3.93247 15.946C2.02895 15.946 0.48584 17.4892 0.48584 19.3927C0.48584 21.2962 2.02895 22.8393 3.93247 22.8393Z" fill="url(#paint1_linear_579_1216)"/>
<path d="M13.3392 28C15.2427 28 16.7858 26.4568 16.7858 24.5533C16.7858 22.6498 15.2427 21.1067 13.3392 21.1067C11.4357 21.1067 9.89258 22.6498 9.89258 24.5533C9.89258 26.4568 11.4357 28 13.3392 28Z" fill="url(#paint2_linear_579_1216)"/>
<path d="M22.6302 22.8393C24.5337 22.8393 26.0769 21.2962 26.0769 19.3927C26.0769 17.4892 24.5337 15.946 22.6302 15.946C20.7267 15.946 19.1836 17.4892 19.1836 19.3927C19.1836 21.2962 20.7267 22.8393 22.6302 22.8393Z" fill="url(#paint3_linear_579_1216)"/>
<path d="M25.8384 6.2228C24.9537 5.16997 23.4853 4.73221 22.172 5.14042C21.411 5.37684 20.807 5.82198 20.384 6.38349C20.275 6.52756 20.1624 6.66979 20.0479 6.81017C19.0615 8.54826 17.3585 9.82643 15.336 10.2309C15.1347 10.2716 14.9278 10.2974 14.7191 10.3177C14.2721 10.4046 13.8103 10.4526 13.3393 10.4526C12.8683 10.4526 12.4065 10.4046 11.9595 10.3177C11.7508 10.2974 11.5439 10.2716 11.3426 10.2309C9.32008 9.82458 7.61708 8.54826 6.63074 6.81017C6.51623 6.66979 6.40356 6.52756 6.29458 6.38349C5.8716 5.82383 5.26761 5.37684 4.50662 5.14042C3.19335 4.73221 1.72493 5.16812 0.840183 6.2228C-0.615307 7.95535 -0.0999748 10.4821 1.77111 11.5479C2.22733 11.8083 2.71681 11.9524 3.20628 11.993C3.42608 12.0115 3.64403 12.0374 3.86199 12.0688C3.886 12.0688 3.90816 12.0651 3.93218 12.0651C6.50884 12.0651 8.75487 13.4596 9.97394 15.532C10.1199 15.713 10.2639 15.8977 10.3988 16.088C10.6832 16.4888 11.0582 16.8361 11.5144 17.0946C11.6031 17.1445 11.6936 17.187 11.7859 17.2295C11.8025 17.2369 11.8173 17.2461 11.8321 17.2535C11.8875 17.2775 11.9448 17.2978 12.002 17.32C12.4268 17.4936 12.8812 17.5841 13.3393 17.586C13.7955 17.586 14.2518 17.4936 14.6766 17.32C14.7338 17.2978 14.7892 17.2775 14.8465 17.2535C14.8631 17.2461 14.8779 17.2387 14.8927 17.2295C14.9832 17.187 15.0755 17.1445 15.1642 17.0946C15.6204 16.8342 15.9954 16.4888 16.2798 16.088C16.4147 15.8977 16.5587 15.713 16.7047 15.532C17.9219 13.4596 20.1698 12.0651 22.7464 12.0651C22.7704 12.0651 22.7944 12.0688 22.8166 12.0688C23.0346 12.0374 23.2525 12.0115 23.4723 11.993C23.9636 11.9524 24.4531 11.8065 24.9075 11.5479C26.7786 10.484 27.2939 7.9572 25.8384 6.2228Z" fill="url(#paint4_linear_579_1216)"/>
<defs>
<linearGradient id="paint0_linear_579_1216" x1="9.89258" y1="3.44663" x2="16.784" y2="3.44663" gradientUnits="userSpaceOnUse">
<stop stop-color="#6155A4"/>
<stop offset="1" stop-color="#2C579B"/>
</linearGradient>
<linearGradient id="paint1_linear_579_1216" x1="0.48584" y1="19.3927" x2="7.37725" y2="19.3927" gradientUnits="userSpaceOnUse">
<stop stop-color="#6155A4"/>
<stop offset="1" stop-color="#2C579B"/>
</linearGradient>
<linearGradient id="paint2_linear_579_1216" x1="-0.00216974" y1="24.5533" x2="0.182537" y2="24.5533" gradientUnits="userSpaceOnUse">
<stop stop-color="#6155A4"/>
<stop offset="1" stop-color="#2C579B"/>
</linearGradient>
<linearGradient id="paint3_linear_579_1216" x1="19.1854" y1="19.3927" x2="26.0769" y2="19.3927" gradientUnits="userSpaceOnUse">
<stop stop-color="#6155A4"/>
<stop offset="1" stop-color="#2C579B"/>
</linearGradient>
<linearGradient id="paint4_linear_579_1216" x1="-0.00208015" y1="11.2893" x2="26.6788" y2="11.2893" gradientUnits="userSpaceOnUse">
<stop stop-color="#6155A4"/>
<stop offset="1" stop-color="#2C579B"/>
</linearGradient>
</defs>
</svg>
