<svg width="145" height="145" viewBox="0 0 145 145" fill="none" xmlns="http://www.w3.org/2000/svg">
<rect width="145" height="145" rx="72.5" fill="#7535FF" fill-opacity="0.02"/>
<rect x="12.4541" y="12.4541" width="120.092" height="120.092" rx="60.046" fill="#7535FF" fill-opacity="0.03"/>
<rect x="24.0186" y="24.0183" width="96.9632" height="96.9632" rx="48.4816" fill="#7535FF" fill-opacity="0.05"/>
<rect x="35.583" y="35.5828" width="73.8344" height="73.8344" rx="36.9172" fill="#7535FF" fill-opacity="0.08"/>
<rect x="47.1475" y="47.1472" width="50.7055" height="50.7055" rx="25.3528" fill="url(#paint0_linear_628_1740)"/>
<path d="M72.0476 65.1731C74.0775 65.1731 75.7231 63.5275 75.7231 61.4975C75.7231 59.4676 74.0775 57.822 72.0476 57.822C70.0177 57.822 68.3721 59.4676 68.3721 61.4975C68.3721 63.5275 70.0177 65.1731 72.0476 65.1731Z" fill="#FBFAF9"/>
<path d="M62.0154 82.178C64.0453 82.178 65.6909 80.5324 65.6909 78.5024C65.6909 76.4725 64.0453 74.8269 62.0154 74.8269C59.9854 74.8269 58.3398 76.4725 58.3398 78.5024C58.3398 80.5324 59.9854 82.178 62.0154 82.178Z" fill="#FBFAF9"/>
<path d="M72.0476 87.6816C74.0775 87.6816 75.7231 86.036 75.7231 84.0061C75.7231 81.9762 74.0775 80.3306 72.0476 80.3306C70.0177 80.3306 68.3721 81.9762 68.3721 84.0061C68.3721 86.036 70.0177 87.6816 72.0476 87.6816Z" fill="#FBFAF9"/>
<path d="M81.9553 82.178C83.9852 82.178 85.6308 80.5324 85.6308 78.5024C85.6308 76.4725 83.9852 74.8269 81.9553 74.8269C79.9254 74.8269 78.2798 76.4725 78.2798 78.5024C78.2798 80.5324 79.9254 82.178 81.9553 82.178Z" fill="#FBFAF9"/>
<path d="M85.3766 64.4583C84.4331 63.3356 82.8672 62.8687 81.4667 63.304C80.6552 63.5562 80.0111 64.0309 79.56 64.6297C79.4438 64.7833 79.3236 64.935 79.2015 65.0847C78.1497 66.9382 76.3336 68.3012 74.1767 68.7326C73.962 68.776 73.7414 68.8035 73.5188 68.8252C73.0422 68.9178 72.5497 68.969 72.0474 68.969C71.5452 68.969 71.0527 68.9178 70.576 68.8252C70.3535 68.8035 70.1329 68.776 69.9182 68.7326C67.7613 68.2993 65.9452 66.9382 64.8934 65.0847C64.7712 64.935 64.6511 64.7833 64.5349 64.6297C64.0838 64.0328 63.4397 63.5562 62.6282 63.304C61.2277 62.8687 59.6617 63.3336 58.7182 64.4583C57.1661 66.3059 57.7157 69.0005 59.711 70.137C60.1975 70.4148 60.7195 70.5684 61.2415 70.6117C61.4759 70.6314 61.7083 70.659 61.9407 70.6925C61.9663 70.6925 61.99 70.6886 62.0156 70.6886C64.7634 70.6886 67.1586 72.1757 68.4586 74.3858C68.6142 74.5788 68.7678 74.7758 68.9116 74.9786C69.215 75.4061 69.6148 75.7764 70.1013 76.0522C70.1959 76.1053 70.2924 76.1506 70.3909 76.1959C70.4086 76.2038 70.4244 76.2137 70.4401 76.2215C70.4992 76.2472 70.5603 76.2688 70.6213 76.2925C71.0744 76.4776 71.5589 76.5741 72.0474 76.5761C72.534 76.5761 73.0205 76.4776 73.4735 76.2925C73.5346 76.2688 73.5937 76.2472 73.6547 76.2215C73.6725 76.2137 73.6882 76.2058 73.704 76.1959C73.8005 76.1506 73.899 76.1053 73.9935 76.0522C74.4801 75.7744 74.8799 75.4061 75.1833 74.9786C75.327 74.7758 75.4807 74.5788 75.6363 74.3858C76.9343 72.1757 79.3315 70.6886 82.0793 70.6886C82.1049 70.6886 82.1305 70.6925 82.1541 70.6925C82.3866 70.659 82.619 70.6314 82.8534 70.6117C83.3773 70.5684 83.8993 70.4128 84.3839 70.137C86.3792 69.0025 86.9288 66.3079 85.3766 64.4583Z" fill="#FBFAF9"/>
<defs>
<linearGradient id="paint0_linear_628_1740" x1="52.6081" y1="52.6078" x2="92.3924" y2="90.832" gradientUnits="userSpaceOnUse">
<stop offset="0.288535" stop-color="#7435FF"/>
<stop offset="1" stop-color="#1A599E"/>
</linearGradient>
</defs>
</svg>
