<svg width="51" height="51" viewBox="0 0 51 51" fill="none" xmlns="http://www.w3.org/2000/svg">
<rect width="50.7055" height="50.7055" rx="25.3528" fill="url(#paint0_linear_1891_2407)"/>
<path d="M24.8999 18.0259C26.9298 18.0259 28.5754 16.3803 28.5754 14.3503C28.5754 12.3204 26.9298 10.6748 24.8999 10.6748C22.87 10.6748 21.2244 12.3204 21.2244 14.3503C21.2244 16.3803 22.87 18.0259 24.8999 18.0259Z" fill="#FBFAF9"/>
<path d="M14.8679 35.0307C16.8978 35.0307 18.5434 33.3851 18.5434 31.3552C18.5434 29.3253 16.8978 27.6797 14.8679 27.6797C12.838 27.6797 11.1924 29.3253 11.1924 31.3552C11.1924 33.3851 12.838 35.0307 14.8679 35.0307Z" fill="#FBFAF9"/>
<path d="M24.8999 40.5344C26.9298 40.5344 28.5754 38.8888 28.5754 36.8589C28.5754 34.8289 26.9298 33.1833 24.8999 33.1833C22.87 33.1833 21.2244 34.8289 21.2244 36.8589C21.2244 38.8888 22.87 40.5344 24.8999 40.5344Z" fill="#FBFAF9"/>
<path d="M34.8076 35.0307C36.8375 35.0307 38.4831 33.3851 38.4831 31.3552C38.4831 29.3253 36.8375 27.6797 34.8076 27.6797C32.7777 27.6797 31.1321 29.3253 31.1321 31.3552C31.1321 33.3851 32.7777 35.0307 34.8076 35.0307Z" fill="#FBFAF9"/>
<path d="M38.2289 17.3111C37.2854 16.1883 35.7195 15.7215 34.319 16.1568C33.5075 16.4089 32.8634 16.8837 32.4123 17.4824C32.2961 17.6361 32.1759 17.7878 32.0538 17.9375C31.002 19.791 29.1859 21.154 27.029 21.5854C26.8143 21.6287 26.5937 21.6563 26.3711 21.678C25.8944 21.7706 25.402 21.8218 24.8997 21.8218C24.3974 21.8218 23.905 21.7706 23.4283 21.678C23.2058 21.6563 22.9851 21.6287 22.7704 21.5854C20.6136 21.1521 18.7975 19.791 17.7457 17.9375C17.6235 17.7878 17.5034 17.6361 17.3872 17.4824C16.9361 16.8856 16.292 16.4089 15.4805 16.1568C14.08 15.7215 12.514 16.1864 11.5705 17.3111C10.0184 19.1587 10.5679 21.8533 12.5633 22.9898C13.0498 23.2676 13.5718 23.4212 14.0938 23.4645C14.3282 23.4842 14.5606 23.5118 14.793 23.5453C14.8186 23.5453 14.8423 23.5414 14.8679 23.5414C17.6157 23.5414 20.0109 25.0285 21.3109 27.2385C21.4665 27.4316 21.6201 27.6285 21.7639 27.8314C22.0673 28.2589 22.4671 28.6292 22.9536 28.9049C23.0482 28.9581 23.1447 29.0034 23.2432 29.0487C23.2609 29.0566 23.2767 29.0665 23.2924 29.0743C23.3515 29.0999 23.4126 29.1216 23.4736 29.1452C23.9267 29.3304 24.4112 29.4269 24.8997 29.4289C25.3863 29.4289 25.8728 29.3304 26.3258 29.1452C26.3869 29.1216 26.446 29.0999 26.507 29.0743C26.5248 29.0665 26.5405 29.0586 26.5563 29.0487C26.6528 29.0034 26.7513 28.9581 26.8458 28.9049C27.3324 28.6272 27.7322 28.2589 28.0355 27.8314C28.1793 27.6285 28.333 27.4316 28.4886 27.2385C29.7866 25.0285 32.1838 23.5414 34.9316 23.5414C34.9572 23.5414 34.9828 23.5453 35.0064 23.5453C35.2389 23.5118 35.4713 23.4842 35.7057 23.4645C36.2296 23.4212 36.7516 23.2656 37.2362 22.9898C39.2315 21.8553 39.7811 19.1607 38.2289 17.3111Z" fill="#FBFAF9"/>
<defs>
<linearGradient id="paint0_linear_1891_2407" x1="5.4606" y1="5.46059" x2="45.2449" y2="43.6848" gradientUnits="userSpaceOnUse">
<stop offset="0.288535" stop-color="#7435FF"/>
<stop offset="1" stop-color="#1A599E"/>
</linearGradient>
</defs>
</svg>
