<svg width="392" height="77" viewBox="0 0 392 77" fill="none" xmlns="http://www.w3.org/2000/svg">
<path d="M36.5047 18.8644C41.714 18.8644 45.9369 14.6415 45.9369 9.43222C45.9369 4.22295 41.714 0 36.5047 0C31.2955 0 27.0725 4.22295 27.0725 9.43222C27.0725 14.6415 31.2955 18.8644 36.5047 18.8644Z" fill="url(#paint0_linear_652_1123)"/>
<path d="M10.7618 62.5024C15.9711 62.5024 20.194 58.2794 20.194 53.0702C20.194 47.8609 15.9711 43.6379 10.7618 43.6379C5.55254 43.6379 1.32959 47.8609 1.32959 53.0702C1.32959 58.2794 5.55254 62.5024 10.7618 62.5024Z" fill="url(#paint1_linear_652_1123)"/>
<path d="M36.5047 76.6252C41.714 76.6252 45.9369 72.4022 45.9369 67.193C45.9369 61.9837 41.714 57.7607 36.5047 57.7607C31.2955 57.7607 27.0725 61.9837 27.0725 67.193C27.0725 72.4022 31.2955 76.6252 36.5047 76.6252Z" fill="url(#paint2_linear_652_1123)"/>
<path d="M61.931 62.5024C67.1403 62.5024 71.3632 58.2794 71.3632 53.0702C71.3632 47.8609 67.1403 43.6379 61.931 43.6379C56.7217 43.6379 52.4988 47.8609 52.4988 53.0702C52.4988 58.2794 56.7217 62.5024 61.931 62.5024Z" fill="url(#paint3_linear_652_1123)"/>
<path d="M70.7107 17.0302C68.2894 14.149 64.2709 12.951 60.6769 14.0681C58.5944 14.7152 56.9415 15.9334 55.7839 17.47C55.4857 17.8643 55.1773 18.2535 54.8639 18.6377C52.1647 23.3942 47.5042 26.8921 41.9692 27.9991C41.4182 28.1103 40.8521 28.1811 40.2809 28.2367C39.0576 28.4743 37.794 28.6057 36.505 28.6057C35.216 28.6057 33.9523 28.4743 32.7291 28.2367C32.1579 28.1811 31.5917 28.1103 31.0408 27.9991C25.5058 26.8871 20.8453 23.3942 18.146 18.6377C17.8326 18.2535 17.5243 17.8643 17.2261 17.47C16.0685 15.9384 14.4156 14.7152 12.333 14.0681C8.73908 12.951 4.72053 14.144 2.29929 17.0302C-1.68388 21.7716 -0.273596 28.6866 4.8469 31.6032C6.09543 32.3159 7.43494 32.7102 8.77446 32.8214C9.37598 32.8719 9.97244 32.9427 10.5689 33.0286C10.6346 33.0286 10.6953 33.0185 10.761 33.0185C17.8124 33.0185 23.959 36.8349 27.2952 42.5063C27.6945 43.0017 28.0888 43.5072 28.4578 44.0278C29.2362 45.1247 30.2623 46.075 31.5109 46.7827C31.7535 46.9192 32.0012 47.0354 32.2539 47.1517C32.2994 47.1719 32.3398 47.1972 32.3803 47.2174C32.5319 47.2831 32.6886 47.3387 32.8453 47.3994C34.0079 47.8745 35.2514 48.1222 36.505 48.1272C37.7535 48.1272 39.002 47.8745 40.1646 47.3994C40.3213 47.3387 40.473 47.2831 40.6297 47.2174C40.6752 47.1972 40.7156 47.1769 40.7561 47.1517C41.0037 47.0354 41.2565 46.9192 41.4991 46.7827C42.7476 46.07 43.7738 45.1247 44.5522 44.0278C44.9212 43.5072 45.3155 43.0017 45.7148 42.5063C49.0459 36.8349 55.1976 33.0185 62.249 33.0185C62.3147 33.0185 62.3804 33.0286 62.4411 33.0286C63.0375 32.9427 63.634 32.8719 64.2355 32.8214C65.5801 32.7102 66.9196 32.3108 68.1631 31.6032C73.2836 28.6916 74.6938 21.7767 70.7107 17.0302Z" fill="url(#paint4_linear_652_1123)"/>
<path d="M129.039 58.5908V53.4601H128.923C127.447 55.7146 125.506 57.5798 123.095 59.0558C120.684 60.5318 117.929 61.2698 114.82 61.2698C112.409 61.2698 110.109 60.8047 107.915 59.8696C105.721 58.9395 103.806 57.6556 102.173 56.0229C100.54 54.3902 99.2665 52.4795 98.3567 50.2807C97.4417 48.0869 96.9868 45.7819 96.9868 43.3759C96.9868 40.9698 97.4417 38.7255 98.3567 36.5266C99.2716 34.3329 100.54 32.4171 102.173 30.7844C103.806 29.1517 105.716 27.8729 107.915 26.9377C110.109 26.0076 112.414 25.5375 114.82 25.5375C117.929 25.5375 120.684 26.2755 123.095 27.7515C125.501 29.2275 127.447 31.0927 128.923 33.3472H129.039V18.2536C129.039 17.6723 129.251 17.1668 129.681 16.7372C130.111 16.3075 130.611 16.0952 131.198 16.0952C131.784 16.0952 132.284 16.3075 132.714 16.7372C133.139 17.1668 133.356 17.6673 133.356 18.2536V58.5857C133.356 59.167 133.144 59.6725 132.714 60.1021C132.284 60.5267 131.784 60.7441 131.198 60.7441C130.611 60.7441 130.111 60.5318 129.681 60.1021C129.251 59.6775 129.039 59.172 129.039 58.5857V58.5908ZM129.039 43.3759C129.039 41.5106 128.68 39.7263 127.963 38.0127C127.245 36.3042 126.244 34.808 124.96 33.5241C123.676 32.2402 122.19 31.2444 120.502 30.5216C118.813 29.8038 117.034 29.4449 115.169 29.4449C113.304 29.4449 111.524 29.8038 109.836 30.5216C108.148 31.2393 106.667 32.2402 105.408 33.5241C104.144 34.808 103.164 36.3042 102.466 38.0127C101.769 39.7213 101.415 41.5106 101.415 43.3759C101.415 45.2411 101.764 47.0406 102.466 48.7643C103.164 50.493 104.144 51.9993 105.408 53.2832C106.672 54.5671 108.148 55.568 109.836 56.2858C111.524 57.0035 113.304 57.3624 115.169 57.3624C117.034 57.3624 118.813 57.0035 120.502 56.2858C122.19 55.568 123.676 54.5671 124.96 53.2832C126.244 51.9993 127.24 50.498 127.963 48.7643C128.68 47.0355 129.039 45.2411 129.039 43.3759Z" fill="#224D91"/>
<path d="M157.366 61.2694C154.955 61.2694 152.635 60.8043 150.401 59.8692C148.167 58.9391 146.216 57.6552 144.542 56.0225C142.869 54.3898 141.56 52.4791 140.61 50.2803C139.659 48.0865 139.184 45.7815 139.184 43.3754C139.184 40.9694 139.659 38.725 140.61 36.5262C141.56 34.3324 142.874 32.4167 144.542 30.784C146.21 29.1513 148.167 27.8724 150.401 26.9373C152.635 26.0072 154.955 25.5371 157.366 25.5371C159.777 25.5371 162.098 26.0021 164.332 26.9373C166.566 27.8674 168.517 29.1513 170.19 30.784C171.858 32.4167 173.173 34.3274 174.123 36.5262C175.073 38.72 175.548 41.0047 175.548 43.3754C175.548 45.7461 175.073 48.0865 174.123 50.2803C173.173 52.474 171.858 54.3898 170.19 56.0225C168.517 57.6552 166.566 58.9391 164.332 59.8692C162.098 60.7993 159.777 61.2694 157.366 61.2694ZM157.366 57.362C158.767 57.362 160.232 57.1194 161.764 56.6341C163.301 56.1489 164.842 55.2441 166.399 53.9248C167.951 52.6055 169.129 50.9829 169.927 49.057C170.721 47.1362 171.12 45.2406 171.12 43.3754C171.12 41.5102 170.772 39.7309 170.069 38.0426C169.371 36.3543 168.386 34.8581 167.127 33.554C165.863 32.2549 164.387 31.244 162.699 30.5211C161.011 29.8033 159.232 29.4445 157.366 29.4445C155.501 29.4445 153.783 29.8033 152.094 30.5211C150.406 31.2389 148.925 32.2499 147.666 33.554C146.403 34.8581 145.412 36.3493 144.694 38.0426C143.976 39.7309 143.617 41.5102 143.617 43.3754C143.617 45.2406 143.976 47.03 144.694 48.7386C145.412 50.4471 146.403 51.9534 147.666 53.2575C148.93 54.5617 150.406 55.5676 152.094 56.2904C153.783 57.0082 155.542 57.3671 157.366 57.3671V57.362Z" fill="#224D91"/>
<path d="M208.242 33.8168C206.882 32.4975 205.346 31.4461 203.637 30.6677C201.929 29.8893 200.18 29.4849 198.39 29.4445C196.566 29.4445 194.807 29.8033 193.118 30.5211C191.43 31.2389 189.949 32.2499 188.69 33.554C187.427 34.8581 186.436 36.3493 185.718 38.0426C185 39.7309 184.641 41.5102 184.641 43.3754C184.641 45.2406 185 47.03 185.718 48.7386C186.436 50.4471 187.427 51.9534 188.69 53.2575C189.954 54.5617 191.43 55.5676 193.118 56.2904C194.807 57.0082 196.566 57.3671 198.39 57.3671C200.215 57.3671 201.995 56.9576 203.723 56.1438C205.452 55.33 206.979 54.2584 208.298 52.9391C208.647 52.6307 209.102 52.4943 209.668 52.5296C210.229 52.5701 210.689 52.7622 211.038 53.1109C211.427 53.5002 211.629 53.9854 211.649 54.5667C211.669 55.148 211.482 55.6181 211.093 55.9669C209.344 57.6754 207.383 58.9896 205.204 59.8995C203.031 60.8094 200.756 61.2694 198.385 61.2694C196.015 61.2694 193.654 60.8043 191.42 59.8692C189.186 58.9391 187.235 57.6552 185.561 56.0225C183.888 54.3898 182.579 52.4791 181.629 50.2803C180.679 48.0865 180.203 45.7815 180.203 43.3754C180.203 40.9694 180.679 38.725 181.629 36.5262C182.579 34.3324 183.893 32.4167 185.561 30.784C187.23 29.1513 189.186 27.8724 191.42 26.9373C193.654 26.0072 195.974 25.5371 198.385 25.5371C200.797 25.5371 202.99 25.992 205.204 26.907C207.418 27.8219 209.38 29.1311 211.093 30.8396C211.401 31.1884 211.578 31.6635 211.619 32.2701C211.659 32.8716 211.482 33.367 211.093 33.7562C210.744 34.105 210.279 34.292 209.693 34.3122C209.112 34.3324 208.626 34.1656 208.237 33.8168H208.242Z" fill="#224D91"/>
<path d="M217.159 19.597C217.159 18.6669 217.568 17.8481 218.382 17.1505C219.196 16.453 220.171 16.0991 221.293 16.0991C222.416 16.0991 223.391 16.4479 224.205 17.1505C225.019 17.8481 225.428 18.6669 225.428 19.597V34.6906H243.206V19.597C243.206 18.6669 243.615 17.8481 244.429 17.1505C245.243 16.453 246.219 16.0991 247.346 16.0991C248.473 16.0991 249.444 16.4479 250.257 17.1505C251.071 17.8531 251.481 18.6669 251.481 19.597V57.245C251.481 58.1751 251.071 58.994 250.257 59.6915C249.444 60.3891 248.468 60.7429 247.346 60.7429C246.224 60.7429 245.248 60.3942 244.429 59.6915C243.615 58.994 243.206 58.1751 243.206 57.245V42.0352H225.428V57.245C225.428 58.2155 225.019 59.0445 224.205 59.7219C223.391 60.3992 222.416 60.7429 221.293 60.7429C220.171 60.7429 219.196 60.4043 218.382 59.7219C217.568 59.0445 217.159 58.2155 217.159 57.245V19.597Z" fill="#224D91"/>
<path d="M295.195 43.3754C295.195 45.8219 294.689 48.1522 293.678 50.3662C292.667 52.5802 291.267 54.5061 289.483 56.1387C287.693 57.7714 285.656 59.0351 283.361 59.9248C281.067 60.8195 278.701 61.2643 276.249 61.2643C275.082 61.2643 273.732 61.1177 272.2 60.8296C270.664 60.5364 269.082 59.9854 267.449 59.1666C265.816 58.3527 264.234 57.2356 262.697 55.8152C261.161 54.3999 259.882 52.5802 258.851 50.3662C257.82 48.1522 257.309 45.8219 257.309 43.3754C257.309 40.9289 257.825 38.6088 258.851 36.4099C259.882 34.2162 261.161 32.4066 262.697 30.9912C264.234 29.5759 265.816 28.4537 267.449 27.6399C269.082 26.8261 270.664 26.2701 272.2 25.9769C273.737 25.6837 275.087 25.5371 276.249 25.5371C278.696 25.5371 281.067 25.9819 283.361 26.8766C285.651 27.7713 287.693 29.035 289.483 30.6627C291.272 32.2953 292.667 34.2061 293.678 36.4049C294.689 38.5987 295.195 40.9239 295.195 43.3704V43.3754ZM286.571 43.3754C286.571 42.0157 286.308 40.6964 285.783 39.4125C285.257 38.1286 284.519 37.0115 283.569 36.0612C282.618 35.1109 281.506 34.3628 280.248 33.8168C278.984 33.2709 277.655 33.003 276.254 33.003C275.243 33.003 274.167 33.19 273.019 33.559C271.872 33.928 270.775 34.5397 269.729 35.3939C268.677 36.2482 267.788 37.3653 267.05 38.7452C266.312 40.1252 265.943 41.6669 265.943 43.3805C265.943 46.2162 266.964 48.6627 269.001 50.7251C271.043 52.7824 273.459 53.8135 276.254 53.8135C277.306 53.8135 278.403 53.6316 279.545 53.2575C280.692 52.8885 281.845 52.2213 283.013 51.2457C284.18 50.2752 285.06 49.0722 285.666 47.6316C286.268 46.196 286.571 44.7756 286.571 43.3754Z" fill="#224D91"/>
<path d="M309.298 29.5652V46.3521C309.298 48.4145 310.005 50.1685 311.426 51.6243C312.841 53.0801 314.565 53.8079 316.582 53.8079C318.058 53.8079 319.407 53.3884 320.631 52.5544C321.854 51.7203 322.708 50.7195 323.193 49.5518C323.679 48.3842 323.921 47.3176 323.921 46.3471V29.5602C323.921 28.6301 324.331 27.8112 325.145 27.1136C325.958 26.4161 326.929 26.0623 328.056 26.0623C329.183 26.0623 330.154 26.411 330.968 27.1136C331.781 27.8163 332.191 28.6301 332.191 29.5602V57.2452C332.191 58.1753 331.781 58.9941 330.968 59.6917C330.154 60.3893 329.178 60.7431 328.056 60.7431C326.934 60.7431 325.958 60.3943 325.145 59.6917C324.331 58.9941 323.921 58.1753 323.921 57.2452V55.4962H323.744C322.693 57.2856 321.288 58.6909 319.519 59.722C317.749 60.7532 315.935 61.2688 314.07 61.2688C312.204 61.2688 310.4 60.9301 308.767 60.2477C307.134 59.5653 305.744 58.5847 304.602 57.3059C303.454 56.0219 302.57 54.5004 301.948 52.7313C301.326 50.9621 301.018 49.0312 301.018 46.9334V29.5652C301.018 28.6351 301.427 27.8163 302.241 27.1187C303.055 26.4211 304.031 26.0673 305.153 26.0673C306.275 26.0673 307.251 26.4161 308.064 27.1187C308.878 27.8163 309.288 28.6351 309.288 29.5652H309.298Z" fill="#224D91"/>
<path d="M347.472 42.2131V57.2511C347.472 58.1812 347.063 59.0001 346.249 59.6976C345.435 60.3952 344.46 60.749 343.338 60.749C342.216 60.749 341.24 60.4002 340.426 59.6976C339.612 59.0001 339.203 58.1812 339.203 57.2511V29.5661C339.203 28.636 339.612 27.8171 340.426 27.1196C341.24 26.422 342.216 26.0682 343.338 26.0682C344.46 26.0682 345.435 26.417 346.249 27.1196C347.063 27.8171 347.472 28.636 347.472 29.5661V31.5476C349.024 27.5442 351.764 25.5425 355.692 25.5425C356.622 25.5425 357.577 25.6587 358.548 25.8913C359.442 26.0833 360.18 26.5433 360.762 27.2611C361.343 27.9789 361.636 28.8079 361.636 29.7379C361.636 30.8247 361.227 31.7851 360.413 32.6242C359.599 33.4583 358.684 33.8172 357.673 33.7009L355.343 33.4684C354.256 33.4279 353.285 33.5947 352.431 33.9637C351.577 34.3327 350.768 34.8888 350.015 35.6268C349.257 36.3648 348.645 37.3656 348.18 38.6293C347.715 39.893 347.483 41.0859 347.483 42.2131H347.472Z" fill="#224D91"/>
<path d="M363.734 53.2835C364.239 52.3534 364.917 51.7114 365.776 51.3627C366.63 51.0139 367.444 51.0543 368.222 51.4789C369.466 52.2169 370.912 52.7881 372.565 53.1975C374.217 53.607 375.82 53.8496 377.372 53.9254C379.196 54.0417 380.672 53.7889 381.8 53.1672C382.927 52.5455 383.488 51.7114 383.488 50.66C383.488 49.9979 383.301 49.4065 382.932 48.8808C382.563 48.3551 381.951 47.9305 381.097 47.5968C380.243 47.2683 378.317 46.8791 375.33 46.4292C372.337 45.9844 370.073 45.3727 368.541 44.5943C367.004 43.8159 365.832 42.719 365.018 41.3036C364.204 39.8883 363.795 38.0686 363.795 35.8546C363.795 34.6869 364.007 33.494 364.436 32.2707C364.861 31.0475 365.609 29.9405 366.681 28.9498C367.747 27.959 369.178 27.1351 370.962 26.4729C372.747 25.8107 374.885 25.4822 377.372 25.4822C381.451 25.4822 385.161 26.3364 388.502 28.045C389.2 28.3583 389.66 28.97 389.872 29.8798C390.084 30.7948 389.998 31.6793 389.609 32.5336C389.22 33.4283 388.619 34.0703 387.805 34.4544C386.991 34.8436 386.212 34.8639 385.474 34.5151C384.423 34.0096 383.144 33.6052 381.628 33.2918C380.111 32.9835 378.696 32.8268 377.372 32.8268C375.663 32.8268 374.369 33.1098 373.495 33.6709C372.62 34.2371 372.185 34.9649 372.185 35.8546C372.185 36.4763 372.367 37.0425 372.741 37.5429C373.11 38.0484 373.712 38.4578 374.546 38.7661C375.38 39.0795 377.235 39.4283 380.111 39.8175C382.987 40.2068 385.085 40.692 386.405 41.2733C387.724 41.8546 388.806 42.5926 389.64 43.4873C390.474 44.382 391.075 45.4587 391.444 46.7224C391.813 47.9861 392 49.2952 392 50.655C392 52.7123 391.419 54.5219 390.251 56.0737C389.084 57.6306 387.405 58.8791 385.212 59.8345C383.018 60.7848 380.405 61.2599 377.372 61.2599C372.671 61.2599 368.415 60.2287 364.608 58.1714C363.87 57.7822 363.42 57.0948 363.269 56.104C363.112 55.1133 363.269 54.1731 363.734 53.2784V53.2835Z" fill="#224D91"/>
<defs>
<linearGradient id="paint0_linear_652_1123" x1="27.0725" y1="9.43222" x2="45.9319" y2="9.43222" gradientUnits="userSpaceOnUse">
<stop stop-color="#6155A4"/>
<stop offset="1" stop-color="#2C579B"/>
</linearGradient>
<linearGradient id="paint1_linear_652_1123" x1="1.32959" y1="53.0702" x2="20.189" y2="53.0702" gradientUnits="userSpaceOnUse">
<stop stop-color="#6155A4"/>
<stop offset="1" stop-color="#2C579B"/>
</linearGradient>
<linearGradient id="paint2_linear_652_1123" x1="-0.0059441" y1="67.193" x2="0.499534" y2="67.193" gradientUnits="userSpaceOnUse">
<stop stop-color="#6155A4"/>
<stop offset="1" stop-color="#2C579B"/>
</linearGradient>
<linearGradient id="paint3_linear_652_1123" x1="52.5038" y1="53.0702" x2="71.3632" y2="53.0702" gradientUnits="userSpaceOnUse">
<stop stop-color="#6155A4"/>
<stop offset="1" stop-color="#2C579B"/>
</linearGradient>
<linearGradient id="paint4_linear_652_1123" x1="-0.00569263" y1="30.8955" x2="73.0106" y2="30.8955" gradientUnits="userSpaceOnUse">
<stop stop-color="#6155A4"/>
<stop offset="1" stop-color="#2C579B"/>
</linearGradient>
</defs>
</svg>
