<svg width="14" height="15" viewBox="0 0 14 15" fill="none" xmlns="http://www.w3.org/2000/svg">
<path d="M6.98432 3.60927C7.98099 3.60927 8.78895 2.8013 8.78895 1.80463C8.78895 0.807962 7.98099 0 6.98432 0C5.98765 0 5.17969 0.807962 5.17969 1.80463C5.17969 2.8013 5.98765 3.60927 6.98432 3.60927Z" fill="url(#paint0_linear_1072_1592)"/>
<path d="M2.05903 11.9584C3.0557 11.9584 3.86366 11.1504 3.86366 10.1538C3.86366 9.15708 3.0557 8.34912 2.05903 8.34912C1.06236 8.34912 0.254395 9.15708 0.254395 10.1538C0.254395 11.1504 1.06236 11.9584 2.05903 11.9584Z" fill="url(#paint1_linear_1072_1592)"/>
<path d="M6.98432 14.6605C7.98099 14.6605 8.78895 13.8526 8.78895 12.8559C8.78895 11.8592 7.98099 11.0513 6.98432 11.0513C5.98765 11.0513 5.17969 11.8592 5.17969 12.8559C5.17969 13.8526 5.98765 14.6605 6.98432 14.6605Z" fill="url(#paint2_linear_1072_1592)"/>
<path d="M11.8491 11.9584C12.8457 11.9584 13.6537 11.1504 13.6537 10.1538C13.6537 9.15708 12.8457 8.34912 11.8491 8.34912C10.8524 8.34912 10.0444 9.15708 10.0444 10.1538C10.0444 11.1504 10.8524 11.9584 11.8491 11.9584Z" fill="url(#paint3_linear_1072_1592)"/>
<path d="M13.5288 3.25831C13.0656 2.70705 12.2967 2.47785 11.6091 2.69158C11.2107 2.81537 10.8944 3.04844 10.6729 3.34244C10.6159 3.41788 10.5569 3.49235 10.4969 3.56585C9.98048 4.4759 9.0888 5.14514 8.02982 5.35694C7.9244 5.37822 7.81608 5.39176 7.7068 5.40239C7.47276 5.44785 7.23098 5.47299 6.98437 5.47299C6.73775 5.47299 6.49598 5.44785 6.26193 5.40239C6.15265 5.39176 6.04433 5.37822 5.93892 5.35694C4.87993 5.14418 3.98825 4.4759 3.47181 3.56585C3.41185 3.49235 3.35286 3.41788 3.2958 3.34244C3.07433 3.04941 2.75808 2.81537 2.35963 2.69158C1.67202 2.47785 0.903161 2.70608 0.439914 3.25831C-0.322171 4.16546 -0.0523461 5.48847 0.927339 6.04649C1.16622 6.18285 1.4225 6.25829 1.67879 6.27957C1.79387 6.28924 1.90799 6.30278 2.02211 6.31922C2.03468 6.31922 2.04629 6.31728 2.05886 6.31728C3.40798 6.31728 4.58399 7.04745 5.22229 8.13255C5.29869 8.22733 5.37412 8.32404 5.44472 8.42365C5.59366 8.63352 5.78998 8.81534 6.02886 8.95073C6.07528 8.97684 6.12267 8.99909 6.17103 9.02133C6.17973 9.0252 6.18747 9.03003 6.1952 9.0339C6.22422 9.04648 6.2542 9.05711 6.28418 9.06872C6.50661 9.15963 6.74452 9.20702 6.98437 9.20798C7.22324 9.20798 7.46212 9.15963 7.68456 9.06872C7.71454 9.05711 7.74355 9.04648 7.77353 9.0339C7.78224 9.03003 7.78997 9.02617 7.79771 9.02133C7.8451 8.99909 7.89345 8.97684 7.93987 8.95073C8.17875 8.81437 8.37508 8.63352 8.52401 8.42365C8.59461 8.32404 8.67004 8.22733 8.74645 8.13255C9.38377 7.04745 10.5608 6.31728 11.9099 6.31728C11.9224 6.31728 11.935 6.31922 11.9466 6.31922C12.0607 6.30278 12.1749 6.28924 12.2899 6.27957C12.5472 6.25829 12.8035 6.18189 13.0414 6.04649C14.0211 5.48943 14.2909 4.16642 13.5288 3.25831Z" fill="url(#paint4_linear_1072_1592)"/>
<defs>
<linearGradient id="paint0_linear_1072_1592" x1="5.17969" y1="1.80463" x2="8.78799" y2="1.80463" gradientUnits="userSpaceOnUse">
<stop stop-color="#6155A4"/>
<stop offset="1" stop-color="#2C579B"/>
</linearGradient>
<linearGradient id="paint1_linear_1072_1592" x1="0.254395" y1="10.1538" x2="3.86269" y2="10.1538" gradientUnits="userSpaceOnUse">
<stop stop-color="#6155A4"/>
<stop offset="1" stop-color="#2C579B"/>
</linearGradient>
<linearGradient id="paint2_linear_1072_1592" x1="-0.00113561" y1="12.8559" x2="0.0955757" y2="12.8559" gradientUnits="userSpaceOnUse">
<stop stop-color="#6155A4"/>
<stop offset="1" stop-color="#2C579B"/>
</linearGradient>
<linearGradient id="paint3_linear_1072_1592" x1="10.0454" y1="10.1538" x2="13.6537" y2="10.1538" gradientUnits="userSpaceOnUse">
<stop stop-color="#6155A4"/>
<stop offset="1" stop-color="#2C579B"/>
</linearGradient>
<linearGradient id="paint4_linear_1072_1592" x1="-0.00108915" y1="5.9111" x2="13.9689" y2="5.9111" gradientUnits="userSpaceOnUse">
<stop stop-color="#6155A4"/>
<stop offset="1" stop-color="#2C579B"/>
</linearGradient>
</defs>
</svg>
