<svg width="144" height="28" viewBox="0 0 144 28" fill="none" xmlns="http://www.w3.org/2000/svg">
<path d="M13.3392 6.89326C15.2427 6.89326 16.7858 5.35015 16.7858 3.44663C16.7858 1.54311 15.2427 0 13.3392 0C11.4357 0 9.89258 1.54311 9.89258 3.44663C9.89258 5.35015 11.4357 6.89326 13.3392 6.89326Z" fill="url(#paint0_linear_579_1215)"/>
<path d="M3.93247 22.8393C5.83599 22.8393 7.3791 21.2962 7.3791 19.3927C7.3791 17.4892 5.83599 15.946 3.93247 15.946C2.02895 15.946 0.48584 17.4892 0.48584 19.3927C0.48584 21.2962 2.02895 22.8393 3.93247 22.8393Z" fill="url(#paint1_linear_579_1215)"/>
<path d="M13.3392 28C15.2427 28 16.7858 26.4568 16.7858 24.5533C16.7858 22.6498 15.2427 21.1067 13.3392 21.1067C11.4357 21.1067 9.89258 22.6498 9.89258 24.5533C9.89258 26.4568 11.4357 28 13.3392 28Z" fill="url(#paint2_linear_579_1215)"/>
<path d="M22.6302 22.8393C24.5337 22.8393 26.0769 21.2962 26.0769 19.3927C26.0769 17.4892 24.5337 15.946 22.6302 15.946C20.7267 15.946 19.1836 17.4892 19.1836 19.3927C19.1836 21.2962 20.7267 22.8393 22.6302 22.8393Z" fill="url(#paint3_linear_579_1215)"/>
<path d="M25.8384 6.2228C24.9537 5.16997 23.4853 4.73221 22.172 5.14042C21.411 5.37684 20.807 5.82198 20.384 6.38349C20.275 6.52756 20.1624 6.66979 20.0479 6.81017C19.0615 8.54826 17.3585 9.82643 15.336 10.2309C15.1347 10.2716 14.9278 10.2974 14.7191 10.3177C14.2721 10.4046 13.8103 10.4526 13.3393 10.4526C12.8683 10.4526 12.4065 10.4046 11.9595 10.3177C11.7508 10.2974 11.5439 10.2716 11.3426 10.2309C9.32008 9.82458 7.61708 8.54826 6.63074 6.81017C6.51623 6.66979 6.40356 6.52756 6.29458 6.38349C5.8716 5.82383 5.26761 5.37684 4.50662 5.14042C3.19335 4.73221 1.72493 5.16812 0.840183 6.2228C-0.615307 7.95535 -0.0999748 10.4821 1.77111 11.5479C2.22733 11.8083 2.71681 11.9524 3.20628 11.993C3.42608 12.0115 3.64403 12.0374 3.86199 12.0688C3.886 12.0688 3.90816 12.0651 3.93218 12.0651C6.50884 12.0651 8.75487 13.4596 9.97394 15.532C10.1199 15.713 10.2639 15.8977 10.3988 16.088C10.6832 16.4888 11.0582 16.8361 11.5144 17.0946C11.6031 17.1445 11.6936 17.187 11.7859 17.2295C11.8025 17.2369 11.8173 17.2461 11.8321 17.2535C11.8875 17.2775 11.9448 17.2978 12.002 17.32C12.4268 17.4936 12.8812 17.5841 13.3393 17.586C13.7955 17.586 14.2518 17.4936 14.6766 17.32C14.7338 17.2978 14.7892 17.2775 14.8465 17.2535C14.8631 17.2461 14.8779 17.2387 14.8927 17.2295C14.9832 17.187 15.0755 17.1445 15.1642 17.0946C15.6204 16.8342 15.9954 16.4888 16.2798 16.088C16.4147 15.8977 16.5587 15.713 16.7047 15.532C17.9219 13.4596 20.1698 12.0651 22.7464 12.0651C22.7704 12.0651 22.7944 12.0688 22.8166 12.0688C23.0346 12.0374 23.2525 12.0115 23.4723 11.993C23.9636 11.9524 24.4531 11.8065 24.9075 11.5479C26.7786 10.484 27.2939 7.9572 25.8384 6.2228Z" fill="url(#paint4_linear_579_1215)"/>
<path d="M47.1522 21.4097V19.5349H47.1097C46.5704 20.3587 45.8611 21.0402 44.9801 21.5796C44.099 22.1189 43.0923 22.3886 41.9564 22.3886C41.0753 22.3886 40.2349 22.2187 39.4333 21.877C38.6317 21.5371 37.9316 21.0679 37.335 20.4713C36.7384 19.8747 36.273 19.1765 35.9405 18.3731C35.6062 17.5714 35.4399 16.7292 35.4399 15.85C35.4399 14.9708 35.6062 14.1507 35.9405 13.3472C36.2748 12.5456 36.7384 11.8455 37.335 11.2489C37.9316 10.6523 38.6298 10.185 39.4333 9.84331C40.2349 9.50345 41.0772 9.33167 41.9564 9.33167C43.0923 9.33167 44.099 9.60134 44.9801 10.1407C45.8593 10.68 46.5704 11.3616 47.1097 12.1854H47.1522V6.67005C47.1522 6.45763 47.2298 6.27293 47.3868 6.11593C47.5438 5.95892 47.7266 5.88135 47.9409 5.88135C48.1552 5.88135 48.338 5.95892 48.495 6.11593C48.6502 6.27293 48.7296 6.45579 48.7296 6.67005V21.4078C48.7296 21.6202 48.652 21.8049 48.495 21.9619C48.338 22.1171 48.1552 22.1965 47.9409 22.1965C47.7266 22.1965 47.5438 22.1189 47.3868 21.9619C47.2298 21.8068 47.1522 21.6221 47.1522 21.4078V21.4097ZM47.1522 15.85C47.1522 15.1684 47.0211 14.5164 46.7588 13.8902C46.4965 13.2659 46.1308 12.7192 45.6616 12.25C45.1925 11.7809 44.6494 11.417 44.0325 11.1529C43.4156 10.8906 42.7654 10.7595 42.0838 10.7595C41.4023 10.7595 40.7521 10.8906 40.1352 11.1529C39.5183 11.4152 38.9771 11.7809 38.5172 12.25C38.0554 12.7192 37.6971 13.2659 37.4422 13.8902C37.1873 14.5145 37.058 15.1684 37.058 15.85C37.058 16.5315 37.1854 17.1891 37.4422 17.819C37.6971 18.4507 38.0554 19.0011 38.5172 19.4702C38.9789 19.9394 39.5183 20.3051 40.1352 20.5674C40.7521 20.8297 41.4023 20.9608 42.0838 20.9608C42.7654 20.9608 43.4156 20.8297 44.0325 20.5674C44.6494 20.3051 45.1925 19.9394 45.6616 19.4702C46.1308 19.0011 46.4946 18.4525 46.7588 17.819C47.0211 17.1873 47.1522 16.5315 47.1522 15.85Z" fill="#224D91"/>
<path d="M57.5033 22.3885C56.6222 22.3885 55.7744 22.2185 54.958 21.8768C54.1416 21.537 53.4286 21.0678 52.8173 20.4712C52.2059 19.8746 51.7275 19.1764 51.3802 18.3729C51.033 17.5713 50.8594 16.7291 50.8594 15.8498C50.8594 14.9706 51.033 14.1505 51.3802 13.3471C51.7275 12.5454 52.2077 11.8454 52.8173 11.2488C53.4268 10.6522 54.1416 10.1849 54.958 9.84318C55.7744 9.50332 56.6222 9.33154 57.5033 9.33154C58.3843 9.33154 59.2321 9.50147 60.0485 9.84318C60.8649 10.183 61.5779 10.6522 62.1893 11.2488C62.7988 11.8454 63.2791 12.5436 63.6263 13.3471C63.9736 14.1487 64.1472 14.9836 64.1472 15.8498C64.1472 16.7161 63.9736 17.5713 63.6263 18.3729C63.2791 19.1746 62.7988 19.8746 62.1893 20.4712C61.5779 21.0678 60.8649 21.537 60.0485 21.8768C59.2321 22.2167 58.3843 22.3885 57.5033 22.3885ZM57.5033 20.9607C58.0149 20.9607 58.5506 20.872 59.1102 20.6947C59.6717 20.5174 60.2351 20.1868 60.804 19.7047C61.371 19.2226 61.8014 18.6297 62.0933 17.926C62.3832 17.2241 62.5292 16.5314 62.5292 15.8498C62.5292 15.1683 62.4017 14.5181 62.145 13.9012C61.8901 13.2843 61.5299 12.7375 61.07 12.261C60.6082 11.7863 60.0689 11.4169 59.4519 11.1528C58.835 10.8905 58.1849 10.7593 57.5033 10.7593C56.8217 10.7593 56.1937 10.8905 55.5768 11.1528C54.9599 11.415 54.4187 11.7845 53.9588 12.261C53.497 12.7375 53.135 13.2824 52.8727 13.9012C52.6104 14.5181 52.4793 15.1683 52.4793 15.8498C52.4793 16.5314 52.6104 17.1853 52.8727 17.8096C53.135 18.4339 53.497 18.9843 53.9588 19.4609C54.4205 19.9374 54.9599 20.305 55.5768 20.5691C56.1937 20.8314 56.8365 20.9625 57.5033 20.9625V20.9607Z" fill="#224D91"/>
<path d="M76.0938 12.357C75.597 11.875 75.0355 11.4908 74.4112 11.2063C73.7868 10.9219 73.1478 10.7741 72.4939 10.7593C71.8271 10.7593 71.1843 10.8905 70.5674 11.1528C69.9505 11.415 69.4093 11.7845 68.9494 12.261C68.4876 12.7375 68.1256 13.2824 67.8633 13.9012C67.601 14.5181 67.4699 15.1683 67.4699 15.8498C67.4699 16.5314 67.601 17.1853 67.8633 17.8096C68.1256 18.4339 68.4876 18.9843 68.9494 19.4609C69.4111 19.9374 69.9505 20.305 70.5674 20.5691C71.1843 20.8314 71.8271 20.9625 72.4939 20.9625C73.1607 20.9625 73.8109 20.8129 74.4426 20.5155C75.0743 20.2182 75.6321 19.8266 76.1142 19.3445C76.2416 19.2318 76.4078 19.182 76.6147 19.1949C76.8197 19.2097 76.9878 19.2799 77.1153 19.4073C77.2575 19.5495 77.3314 19.7268 77.3388 19.9393C77.3461 20.1517 77.2778 20.3235 77.1356 20.4509C76.4965 21.0752 75.7798 21.5554 74.9837 21.8879C74.1895 22.2204 73.3583 22.3885 72.4921 22.3885C71.6258 22.3885 70.7632 22.2185 69.9468 21.8768C69.1304 21.537 68.4174 21.0678 67.806 20.4712C67.1947 19.8746 66.7163 19.1764 66.369 18.3729C66.0218 17.5713 65.8481 16.7291 65.8481 15.8498C65.8481 14.9706 66.0218 14.1505 66.369 13.3471C66.7163 12.5454 67.1965 11.8454 67.806 11.2488C68.4156 10.6522 69.1304 10.1849 69.9468 9.84318C70.7632 9.50332 71.611 9.33154 72.4921 9.33154C73.3731 9.33154 74.1747 9.49778 74.9837 9.8321C75.7928 10.1664 76.5094 10.6448 77.1356 11.2691C77.2483 11.3966 77.3129 11.5702 77.3277 11.7918C77.3425 12.0116 77.2778 12.1927 77.1356 12.3349C77.0081 12.4623 76.8382 12.5307 76.6239 12.5381C76.4115 12.5454 76.2342 12.4845 76.092 12.357H76.0938Z" fill="#224D91"/>
<path d="M79.3521 7.16123C79.3521 6.82137 79.5017 6.52214 79.799 6.26725C80.0964 6.01235 80.4529 5.88306 80.863 5.88306C81.273 5.88306 81.6295 6.0105 81.9269 6.26725C82.2242 6.52214 82.3739 6.82137 82.3739 7.16123V12.6766H88.87V7.16123C88.87 6.82137 89.0196 6.52214 89.317 6.26725C89.6144 6.01235 89.9708 5.88306 90.3827 5.88306C90.7946 5.88306 91.1493 6.0105 91.4467 6.26725C91.744 6.52399 91.8936 6.82137 91.8936 7.16123V20.9182C91.8936 21.2581 91.744 21.5573 91.4467 21.8122C91.1493 22.0671 90.7928 22.1964 90.3827 22.1964C89.9727 22.1964 89.6162 22.0689 89.317 21.8122C89.0196 21.5573 88.87 21.2581 88.87 20.9182V15.3604H82.3739V20.9182C82.3739 21.2728 82.2242 21.5758 81.9269 21.8233C81.6295 22.0708 81.273 22.1964 80.863 22.1964C80.4529 22.1964 80.0964 22.0726 79.799 21.8233C79.5017 21.5758 79.3521 21.2728 79.3521 20.9182V7.16123Z" fill="#224D91"/>
<path d="M107.867 15.8498C107.867 16.7438 107.683 17.5953 107.313 18.4043C106.944 19.2134 106.432 19.9171 105.78 20.5137C105.126 21.1103 104.382 21.5721 103.543 21.8972C102.705 22.2241 101.84 22.3866 100.944 22.3866C100.518 22.3866 100.025 22.3331 99.4649 22.2278C98.9034 22.1206 98.3253 21.9193 97.7287 21.6201C97.1321 21.3227 96.5539 20.9145 95.9924 20.3955C95.4309 19.8783 94.9636 19.2134 94.5868 18.4043C94.21 17.5953 94.0234 16.7438 94.0234 15.8498C94.0234 14.9559 94.2118 14.1081 94.5868 13.3046C94.9636 12.503 95.4309 11.8417 95.9924 11.3245C96.5539 10.8074 97.1321 10.3973 97.7287 10.0999C98.3253 9.80255 98.9034 9.59937 99.4649 9.49224C100.026 9.38511 100.52 9.33154 100.944 9.33154C101.838 9.33154 102.705 9.49408 103.543 9.82102C104.38 10.1479 105.126 10.6097 105.78 11.2045C106.434 11.8011 106.944 12.4993 107.313 13.3027C107.683 14.1044 107.867 14.954 107.867 15.848V15.8498ZM104.716 15.8498C104.716 15.353 104.62 14.8709 104.428 14.4017C104.236 13.9326 103.966 13.5244 103.619 13.1771C103.272 12.8299 102.865 12.5565 102.405 12.357C101.944 12.1576 101.458 12.0597 100.946 12.0597C100.577 12.0597 100.183 12.128 99.7641 12.2628C99.3448 12.3977 98.944 12.6212 98.5617 12.9333C98.1775 13.2455 97.8524 13.6537 97.5827 14.1579C97.3131 14.6622 97.1782 15.2255 97.1782 15.8517C97.1782 16.8879 97.5513 17.7819 98.2957 18.5355C99.0419 19.2872 99.9248 19.664 100.946 19.664C101.33 19.664 101.731 19.5976 102.149 19.4609C102.568 19.326 102.989 19.0822 103.416 18.7257C103.842 18.3711 104.164 17.9315 104.386 17.4051C104.605 16.8805 104.716 16.3615 104.716 15.8498Z" fill="#224D91"/>
<path d="M113.021 10.8037V16.9378C113.021 17.6914 113.279 18.3324 113.798 18.8643C114.315 19.3963 114.945 19.6622 115.682 19.6622C116.222 19.6622 116.715 19.5089 117.162 19.2042C117.609 18.8994 117.921 18.5337 118.098 18.107C118.276 17.6803 118.364 17.2906 118.364 16.936V10.8019C118.364 10.462 118.514 10.1628 118.811 9.90787C119.109 9.65298 119.463 9.52368 119.875 9.52368C120.287 9.52368 120.642 9.65113 120.939 9.90787C121.236 10.1646 121.386 10.462 121.386 10.8019V20.9183C121.386 21.2581 121.236 21.5573 120.939 21.8122C120.642 22.0671 120.285 22.1964 119.875 22.1964C119.465 22.1964 119.109 22.069 118.811 21.8122C118.514 21.5573 118.364 21.2581 118.364 20.9183V20.2792H118.3C117.915 20.933 117.402 21.4465 116.755 21.8233C116.109 22.2001 115.446 22.3885 114.764 22.3885C114.083 22.3885 113.423 22.2648 112.827 22.0154C112.23 21.7661 111.722 21.4077 111.305 20.9404C110.885 20.4713 110.562 19.9153 110.335 19.2688C110.108 18.6223 109.995 17.9168 109.995 17.1502V10.8037C109.995 10.4638 110.145 10.1646 110.442 9.90972C110.739 9.65482 111.096 9.52553 111.506 9.52553C111.916 9.52553 112.273 9.65298 112.57 9.90972C112.867 10.1646 113.017 10.4638 113.017 10.8037H113.021Z" fill="#224D91"/>
<path d="M126.97 15.4251V20.9202C126.97 21.26 126.82 21.5592 126.523 21.8141C126.226 22.069 125.869 22.1983 125.459 22.1983C125.049 22.1983 124.693 22.0709 124.395 21.8141C124.098 21.5592 123.948 21.26 123.948 20.9202V10.8038C123.948 10.4639 124.098 10.1647 124.395 9.90978C124.693 9.65489 125.049 9.52559 125.459 9.52559C125.869 9.52559 126.226 9.65304 126.523 9.90978C126.82 10.1647 126.97 10.4639 126.97 10.8038V11.5278C127.537 10.0649 128.538 9.3335 129.973 9.3335C130.313 9.3335 130.662 9.37598 131.017 9.46094C131.344 9.53113 131.614 9.69922 131.826 9.9615C132.038 10.2238 132.146 10.5267 132.146 10.8666C132.146 11.2637 131.996 11.6146 131.699 11.9212C131.401 12.226 131.067 12.3571 130.697 12.3147L129.846 12.2297C129.449 12.2149 129.094 12.2759 128.782 12.4107C128.47 12.5455 128.174 12.7487 127.899 13.0184C127.622 13.2881 127.399 13.6538 127.229 14.1156C127.059 14.5773 126.974 15.0132 126.974 15.4251H126.97Z" fill="#224D91"/>
<path d="M132.912 19.4702C133.097 19.1303 133.344 18.8957 133.658 18.7683C133.971 18.6408 134.268 18.6556 134.552 18.8108C135.007 19.0804 135.535 19.2891 136.139 19.4388C136.743 19.5884 137.328 19.677 137.896 19.7047C138.562 19.7472 139.102 19.6549 139.514 19.4277C139.925 19.2005 140.13 18.8957 140.13 18.5115C140.13 18.2696 140.062 18.0535 139.927 17.8614C139.792 17.6693 139.569 17.5141 139.257 17.3922C138.945 17.2721 138.241 17.1299 137.149 16.9655C136.056 16.803 135.228 16.5795 134.669 16.295C134.107 16.0106 133.679 15.6098 133.381 15.0926C133.084 14.5754 132.934 13.9105 132.934 13.1015C132.934 12.6748 133.012 12.2389 133.169 11.7919C133.324 11.3449 133.597 10.9404 133.989 10.5784C134.379 10.2163 134.901 9.91527 135.553 9.6733C136.205 9.43134 136.987 9.31128 137.896 9.31128C139.386 9.31128 140.742 9.62343 141.963 10.2477C142.218 10.3623 142.386 10.5858 142.463 10.9182C142.541 11.2525 142.51 11.5758 142.367 11.8879C142.225 12.2149 142.005 12.4495 141.708 12.5898C141.411 12.7321 141.126 12.7394 140.856 12.612C140.472 12.4273 140.005 12.2795 139.451 12.165C138.897 12.0523 138.379 11.9951 137.896 11.9951C137.271 11.9951 136.798 12.0985 136.479 12.3035C136.159 12.5104 136 12.7764 136 13.1015C136 13.3287 136.067 13.5355 136.204 13.7184C136.338 13.9031 136.558 14.0527 136.863 14.1654C137.168 14.2799 137.846 14.4073 138.897 14.5496C139.948 14.6918 140.714 14.8691 141.196 15.0815C141.678 15.2939 142.074 15.5636 142.378 15.8905C142.683 16.2175 142.903 16.6109 143.038 17.0727C143.173 17.5344 143.241 18.0128 143.241 18.5097C143.241 19.2614 143.029 19.9227 142.602 20.4897C142.175 21.0586 141.562 21.5149 140.76 21.864C139.959 22.2112 139.004 22.3848 137.896 22.3848C136.178 22.3848 134.623 22.008 133.232 21.2563C132.962 21.1141 132.798 20.8628 132.742 20.5008C132.685 20.1388 132.742 19.7952 132.912 19.4683V19.4702Z" fill="#224D91"/>
<defs>
<linearGradient id="paint0_linear_579_1215" x1="9.89258" y1="3.44663" x2="16.784" y2="3.44663" gradientUnits="userSpaceOnUse">
<stop stop-color="#6155A4"/>
<stop offset="1" stop-color="#2C579B"/>
</linearGradient>
<linearGradient id="paint1_linear_579_1215" x1="0.48584" y1="19.3927" x2="7.37725" y2="19.3927" gradientUnits="userSpaceOnUse">
<stop stop-color="#6155A4"/>
<stop offset="1" stop-color="#2C579B"/>
</linearGradient>
<linearGradient id="paint2_linear_579_1215" x1="-0.00216974" y1="24.5533" x2="0.182537" y2="24.5533" gradientUnits="userSpaceOnUse">
<stop stop-color="#6155A4"/>
<stop offset="1" stop-color="#2C579B"/>
</linearGradient>
<linearGradient id="paint3_linear_579_1215" x1="19.1854" y1="19.3927" x2="26.0769" y2="19.3927" gradientUnits="userSpaceOnUse">
<stop stop-color="#6155A4"/>
<stop offset="1" stop-color="#2C579B"/>
</linearGradient>
<linearGradient id="paint4_linear_579_1215" x1="-0.00208015" y1="11.2893" x2="26.6788" y2="11.2893" gradientUnits="userSpaceOnUse">
<stop stop-color="#6155A4"/>
<stop offset="1" stop-color="#2C579B"/>
</linearGradient>
</defs>
</svg>
