<svg width="105" height="30" viewBox="0 0 105 30" fill="none" xmlns="http://www.w3.org/2000/svg">
<path d="M40.0947 11.0059C41.3844 11.0059 42.3255 11.2633 42.918 11.7783C43.515 12.2933 43.8135 13.0247 43.8135 13.9727C43.8135 14.401 43.7451 14.8089 43.6084 15.1963C43.4717 15.5791 43.2484 15.9186 42.9385 16.2148C42.6331 16.5065 42.2298 16.7389 41.7285 16.9121C41.2272 17.0807 40.612 17.165 39.8828 17.165H38.7412V21H37.3398V11.0059H40.0947ZM39.9854 12.1816H38.7412V15.9824H39.7324C40.3112 15.9824 40.7965 15.9186 41.1885 15.791C41.5804 15.6589 41.8766 15.4492 42.0771 15.1621C42.2777 14.875 42.3779 14.4967 42.3779 14.0273C42.3779 13.4076 42.1842 12.945 41.7969 12.6396C41.4095 12.3343 40.8057 12.1816 39.9854 12.1816ZM47.0674 21H45.6865V10.3633H47.0674V21ZM52.29 13.3369C53.2197 13.3369 53.9147 13.5443 54.375 13.959C54.8353 14.3691 55.0654 15.0186 55.0654 15.9072V21H54.0811L53.8145 19.9062H53.7598C53.5501 20.1797 53.3314 20.4076 53.1035 20.5898C52.8757 20.7721 52.6113 20.9089 52.3105 21C52.0143 21.0911 51.652 21.1367 51.2236 21.1367C50.7679 21.1367 50.3623 21.0547 50.0068 20.8906C49.6514 20.7266 49.3711 20.4805 49.166 20.1523C48.9655 19.8197 48.8652 19.3981 48.8652 18.8877C48.8652 18.1221 49.1592 17.541 49.7471 17.1445C50.335 16.748 51.2259 16.5316 52.4199 16.4951L53.7188 16.4404V16.0166C53.7188 15.4287 53.5866 15.014 53.3223 14.7725C53.0625 14.5309 52.6979 14.4102 52.2285 14.4102C51.8411 14.4102 51.4697 14.4671 51.1143 14.5811C50.7588 14.6904 50.417 14.8226 50.0889 14.9775L49.6514 13.9795C50.0068 13.7972 50.4102 13.6445 50.8613 13.5215C51.3171 13.3984 51.7933 13.3369 52.29 13.3369ZM53.7051 17.3428L52.6523 17.3906C51.7819 17.4225 51.1689 17.5684 50.8135 17.8281C50.4626 18.0833 50.2871 18.4411 50.2871 18.9014C50.2871 19.3024 50.4079 19.5964 50.6494 19.7832C50.891 19.9701 51.21 20.0635 51.6064 20.0635C52.2171 20.0635 52.7184 19.8926 53.1104 19.5508C53.5068 19.2044 53.7051 18.694 53.7051 18.0195V17.3428ZM56.207 13.4668H57.6904L59.29 17.8076C59.3721 18.0309 59.4473 18.2497 59.5156 18.4639C59.5885 18.6735 59.6501 18.8786 59.7002 19.0791C59.7549 19.2751 59.7982 19.4688 59.8301 19.6602H59.8779C59.9326 19.4277 60.0101 19.1452 60.1104 18.8125C60.2106 18.4798 60.32 18.1426 60.4385 17.8008L61.9697 13.4668H63.4463L60.1924 22.0664C60.0146 22.5449 59.7982 22.9551 59.543 23.2969C59.2923 23.6432 58.9938 23.9076 58.6475 24.0898C58.3011 24.2767 57.891 24.3701 57.417 24.3701C57.1982 24.3701 57.0046 24.3564 56.8359 24.3291C56.6719 24.3063 56.5306 24.279 56.4121 24.2471V23.1533C56.5124 23.1761 56.6331 23.1966 56.7744 23.2148C56.9202 23.2331 57.0706 23.2422 57.2256 23.2422C57.5127 23.2422 57.7588 23.1852 57.9639 23.0713C58.1735 22.9619 58.3512 22.8047 58.4971 22.5996C58.6475 22.3945 58.7728 22.1553 58.873 21.8818L59.2148 20.9932L56.207 13.4668ZM75.6279 11.0059L72.0869 21H70.6309L67.0898 11.0059H68.5391L70.7607 17.4316C70.8428 17.6549 70.9202 17.8919 70.9932 18.1426C71.0661 18.3887 71.1344 18.6348 71.1982 18.8809C71.262 19.127 71.3145 19.3525 71.3555 19.5576C71.3965 19.3525 71.4466 19.127 71.5059 18.8809C71.5697 18.6348 71.6403 18.3864 71.7178 18.1357C71.7952 17.8805 71.8727 17.639 71.9502 17.4111L74.165 11.0059H75.6279ZM78.1777 13.4668V21H76.8037V13.4668H78.1777ZM77.501 10.6162C77.7197 10.6162 77.9066 10.68 78.0615 10.8076C78.221 10.9352 78.3008 11.1426 78.3008 11.4297C78.3008 11.7168 78.221 11.9264 78.0615 12.0586C77.9066 12.1862 77.7197 12.25 77.501 12.25C77.2777 12.25 77.0885 12.1862 76.9336 12.0586C76.7832 11.9264 76.708 11.7168 76.708 11.4297C76.708 11.1426 76.7832 10.9352 76.9336 10.8076C77.0885 10.68 77.2777 10.6162 77.501 10.6162ZM83.127 21.1367C82.2064 21.1367 81.4704 20.8109 80.9189 20.1592C80.3721 19.5075 80.0986 18.5413 80.0986 17.2607C80.0986 15.9665 80.3766 14.9889 80.9326 14.3281C81.4932 13.6628 82.236 13.3301 83.1611 13.3301C83.5485 13.3301 83.888 13.3825 84.1797 13.4873C84.4714 13.5921 84.722 13.7311 84.9316 13.9043C85.1458 14.0775 85.3236 14.2734 85.4648 14.4922H85.5469C85.5241 14.3509 85.5013 14.1527 85.4785 13.8975C85.4557 13.6423 85.4443 13.4189 85.4443 13.2275V10.3633H86.8184V21H85.7314L85.5059 19.9541H85.4443C85.3076 20.1729 85.1322 20.3734 84.918 20.5557C84.7083 20.7334 84.4554 20.8747 84.1592 20.9795C83.8675 21.0843 83.5234 21.1367 83.127 21.1367ZM83.4482 20.0156C84.1911 20.0156 84.7152 19.8014 85.0205 19.373C85.3304 18.9447 85.4876 18.3089 85.4922 17.4658V17.2539C85.4922 16.3561 85.3441 15.668 85.0479 15.1895C84.7562 14.7064 84.2184 14.4648 83.4346 14.4648C82.7965 14.4648 82.3158 14.7155 81.9922 15.2168C81.6686 15.7135 81.5068 16.404 81.5068 17.2881C81.5068 18.1631 81.6686 18.8376 81.9922 19.3115C82.3158 19.7809 82.8011 20.0156 83.4482 20.0156ZM92.1162 13.3301C92.7725 13.3301 93.3353 13.4714 93.8047 13.7539C94.2741 14.0319 94.6341 14.4261 94.8848 14.9365C95.1354 15.4469 95.2607 16.0485 95.2607 16.7412V17.5205H90.1475C90.1611 18.3271 90.3685 18.9469 90.7695 19.3799C91.1706 19.8083 91.7334 20.0225 92.458 20.0225C92.9365 20.0225 93.3626 19.9769 93.7363 19.8857C94.11 19.7946 94.4974 19.6602 94.8984 19.4824V20.6377C94.5202 20.8109 94.1396 20.9362 93.7568 21.0137C93.3786 21.0957 92.9251 21.1367 92.3965 21.1367C91.6673 21.1367 91.027 20.9909 90.4756 20.6992C89.9287 20.4076 89.5026 19.9769 89.1973 19.4072C88.8919 18.833 88.7393 18.1266 88.7393 17.2881C88.7393 16.4587 88.8783 15.75 89.1562 15.1621C89.4342 14.5697 89.8262 14.1162 90.332 13.8018C90.8379 13.4873 91.4326 13.3301 92.1162 13.3301ZM92.1094 14.3965C91.5534 14.3965 91.1068 14.5788 90.7695 14.9434C90.4323 15.3034 90.234 15.8206 90.1748 16.4951H93.8799C93.8753 16.0804 93.8092 15.7158 93.6816 15.4014C93.554 15.0869 93.3604 14.8408 93.1006 14.6631C92.8454 14.4854 92.515 14.3965 92.1094 14.3965ZM103.717 17.2197C103.717 17.8395 103.635 18.3932 103.471 18.8809C103.311 19.3639 103.076 19.7741 102.767 20.1113C102.461 20.444 102.092 20.6992 101.659 20.877C101.226 21.0501 100.736 21.1367 100.189 21.1367C99.679 21.1367 99.2096 21.0501 98.7812 20.877C98.3574 20.6992 97.9906 20.444 97.6807 20.1113C97.3708 19.7741 97.1315 19.3639 96.9629 18.8809C96.7943 18.3932 96.71 17.8395 96.71 17.2197C96.71 16.3949 96.8512 15.693 97.1338 15.1143C97.4163 14.5309 97.8197 14.0889 98.3438 13.7881C98.8724 13.4827 99.5013 13.3301 100.23 13.3301C100.923 13.3301 101.532 13.4827 102.056 13.7881C102.58 14.0934 102.988 14.5355 103.279 15.1143C103.571 15.693 103.717 16.3949 103.717 17.2197ZM98.1182 17.2197C98.1182 17.7985 98.1911 18.2975 98.3369 18.7168C98.4873 19.1315 98.7152 19.4505 99.0205 19.6738C99.3304 19.8971 99.7292 20.0088 100.217 20.0088C100.695 20.0088 101.09 19.8971 101.399 19.6738C101.709 19.4505 101.937 19.1315 102.083 18.7168C102.229 18.2975 102.302 17.7985 102.302 17.2197C102.302 16.6455 102.229 16.1533 102.083 15.7432C101.937 15.333 101.709 15.0186 101.399 14.7998C101.094 14.5811 100.695 14.4717 100.203 14.4717C99.4831 14.4717 98.9544 14.7132 98.6172 15.1963C98.2845 15.6748 98.1182 16.3493 98.1182 17.2197Z" fill="#4C42B8"/>
<path d="M15 0C6.71631 0 0 6.71631 0 15C0 23.2836 6.71631 30 15 30C23.2836 30 30 23.2836 30 15C30 6.71631 23.2836 0 15 0ZM20.57 15.1698L12.1325 20.2056C12.0721 20.2423 11.9952 20.2441 11.933 20.2075C11.8726 20.1727 11.8341 20.1077 11.8341 20.0354V14.9995V9.96357C11.8341 9.89221 11.8726 9.82629 11.933 9.79143C11.9952 9.75574 12.0721 9.75756 12.1325 9.79324L20.57 14.8301C20.6304 14.8644 20.6662 14.9307 20.6662 14.9994C20.6662 15.0696 20.6305 15.1346 20.57 15.1698Z" fill="#4C42B8"/>
</svg>
