<svg width="170" height="257" viewBox="0 0 170 257" fill="none" xmlns="http://www.w3.org/2000/svg">
<mask id="mask0_870_1538" style="mask-type:alpha" maskUnits="userSpaceOnUse" x="0" y="0" width="170" height="257">
<rect width="170" height="257" fill="white"/>
</mask>
<g mask="url(#mask0_870_1538)">
<path d="M-29.2806 102.41C21.5026 94.2794 73.3029 127.923 100.442 168.706C103.27 172.962 106.018 177.475 106.717 182.538C107.416 187.601 105.551 193.348 101.058 195.769C94.2889 199.415 85.487 193.208 83.9471 185.677C82.4071 178.146 85.9543 170.509 90.1827 164.09C106.862 138.785 136.218 122.509 166.483 121.016C196.757 119.521 227.267 132.592 247.633 155.044C256.574 164.905 263.857 177.188 264.024 190.499C264.181 203.812 255.319 217.788 242.181 219.922C225.747 222.594 212.049 207.064 205.411 191.791C184.937 144.625 199.854 85.6045 237.819 50.9265C275.784 16.2484 333.317 6.24728 382.16 22.3076C393.352 25.9844 405.192 31.9983 409.221 43.0604C413.391 54.4949 407.445 67.5187 398.508 75.7754C380.054 92.8375 350.596 93.9283 327.848 83.2299C288.869 64.8916 269.499 14.7533 283.055 -26.1341C296.633 -67.0147 339.428 -95.1844 382.503 -94.8499" stroke="#DADADA" stroke-linecap="round" stroke-linejoin="round" stroke-dasharray="4 4"/>
</g>
<path d="M33.5363 111.44L43.0856 114.238L41.0499 121.184L33.5409 111.444L33.5363 111.44Z" fill="#3D7F4D"/>
<path d="M32.0026 134.372L41.0429 115.484L33.7881 111.47L42.9533 110.249L47.0038 95.9031L77.26 140.836L32.0026 134.372Z" fill="#6AC37F"/>
<path d="M42.4732 110.265L33.5397 111.494L40.5567 115.768L77.2619 140.852L42.4732 110.265Z" fill="#4CAA62"/>
</svg>
