<svg width="101" height="58" viewBox="0 0 101 58" fill="none" xmlns="http://www.w3.org/2000/svg">
<path d="M86.7417 27.3308C91.2679 19.1889 95.7357 11.1487 100.287 2.96155C91.2796 5.53074 82.4405 8.05309 73.4646 10.6138C76.6897 12.3123 79.7647 13.9558 82.8685 15.5453C83.5486 15.8936 83.897 16.3405 84.079 17.0815C84.8465 20.2094 85.6745 23.3218 86.4824 26.4393C86.549 26.6955 86.6313 26.946 86.7436 27.328L86.7417 27.3308Z" fill="#69DDD6"/>
<path d="M78 24.0001H17C7.61116 24.0001 0 31.6113 0 41.0001C0 50.389 7.61116 58.0001 17 58.0001H60C69.9411 58.0001 78 49.9412 78 40.0001V24.0001Z" fill="#69DDD6"/>
<path d="M28.1855 41.6349C28.1855 42.5997 28 43.4064 27.6289 44.0548C27.2617 44.6993 26.7285 45.1857 26.0293 45.5138C25.3301 45.838 24.4883 46.0001 23.5039 46.0001H21.0781V37.4337H23.7676C24.666 37.4337 25.4453 37.5939 26.1055 37.9142C26.7656 38.2306 27.2773 38.7013 27.6406 39.3263C28.0039 39.9474 28.1855 40.7169 28.1855 41.6349ZM26.2988 41.6818C26.2988 41.049 26.2051 40.5294 26.0176 40.1232C25.834 39.713 25.5605 39.4103 25.1973 39.215C24.8379 39.0197 24.3926 38.922 23.8613 38.922H22.8945V44.5001H23.6738C24.5605 44.5001 25.2188 44.2638 25.6484 43.7911C26.082 43.3185 26.2988 42.6154 26.2988 41.6818ZM35.7734 42.713C35.7734 43.2599 35.6992 43.7443 35.5508 44.1661C35.4062 44.588 35.1934 44.9454 34.9121 45.2384C34.6348 45.5275 34.2988 45.7462 33.9043 45.8947C33.5137 46.0431 33.0723 46.1173 32.5801 46.1173C32.1191 46.1173 31.6953 46.0431 31.3086 45.8947C30.9258 45.7462 30.5918 45.5275 30.3066 45.2384C30.0254 44.9454 29.8066 44.588 29.6504 44.1661C29.498 43.7443 29.4219 43.2599 29.4219 42.713C29.4219 41.9865 29.5508 41.3712 29.8086 40.8673C30.0664 40.3634 30.4336 39.9806 30.9102 39.7189C31.3867 39.4572 31.9551 39.3263 32.6152 39.3263C33.2285 39.3263 33.7715 39.4572 34.2441 39.7189C34.7207 39.9806 35.0938 40.3634 35.3633 40.8673C35.6367 41.3712 35.7734 41.9865 35.7734 42.713ZM31.2441 42.713C31.2441 43.1427 31.291 43.504 31.3848 43.797C31.4785 44.09 31.625 44.3107 31.8242 44.4591C32.0234 44.6075 32.2832 44.6818 32.6035 44.6818C32.9199 44.6818 33.1758 44.6075 33.3711 44.4591C33.5703 44.3107 33.7148 44.09 33.8047 43.797C33.8984 43.504 33.9453 43.1427 33.9453 42.713C33.9453 42.2794 33.8984 41.92 33.8047 41.6349C33.7148 41.3458 33.5703 41.129 33.3711 40.9845C33.1719 40.84 32.9121 40.7677 32.5918 40.7677C32.1191 40.7677 31.7754 40.9298 31.5605 41.254C31.3496 41.5782 31.2441 42.0646 31.2441 42.713ZM39.9102 46.1173C39.2617 46.1173 38.709 46.0001 38.252 45.7657C37.7949 45.5275 37.4473 45.1603 37.209 44.6642C36.9707 44.1681 36.8516 43.5333 36.8516 42.7599C36.8516 41.9591 36.9863 41.3068 37.2559 40.8029C37.5293 40.295 37.9062 39.922 38.3867 39.6837C38.8711 39.4454 39.4316 39.3263 40.0684 39.3263C40.5215 39.3263 40.9121 39.3712 41.2402 39.4611C41.5723 39.547 41.8613 39.6505 42.1074 39.7716L41.5801 41.1544C41.2988 41.0411 41.0371 40.9493 40.7949 40.879C40.5527 40.8048 40.3105 40.7677 40.0684 40.7677C39.7559 40.7677 39.4961 40.8419 39.2891 40.9904C39.082 41.1349 38.9277 41.3536 38.8262 41.6466C38.7246 41.9396 38.6738 42.3068 38.6738 42.7482C38.6738 43.1818 38.7285 43.5411 38.8379 43.8263C38.9473 44.1115 39.1055 44.3243 39.3125 44.465C39.5195 44.6017 39.7715 44.67 40.0684 44.67C40.4395 44.67 40.7695 44.6212 41.0586 44.5236C41.3477 44.422 41.6289 44.2814 41.9023 44.1017V45.631C41.6289 45.8029 41.3418 45.9259 41.041 46.0001C40.7441 46.0782 40.3672 46.1173 39.9102 46.1173ZM46.1855 44.6935C46.3809 44.6935 46.5703 44.674 46.7539 44.6349C46.9414 44.5958 47.127 44.547 47.3105 44.4884V45.8185C47.1191 45.9044 46.8809 45.9747 46.5957 46.0294C46.3145 46.088 46.0059 46.1173 45.6699 46.1173C45.2793 46.1173 44.9277 46.0548 44.6152 45.9298C44.3066 45.8009 44.0625 45.5802 43.8828 45.2677C43.707 44.9513 43.6191 44.5118 43.6191 43.9493V40.7911H42.7637V40.0353L43.748 39.4376L44.2637 38.0548H45.4062V39.4493H47.2402V40.7911H45.4062V43.9493C45.4062 44.1993 45.4766 44.3868 45.6172 44.5118C45.7617 44.6329 45.9512 44.6935 46.1855 44.6935ZM54.5938 42.713C54.5938 43.2599 54.5195 43.7443 54.3711 44.1661C54.2266 44.588 54.0137 44.9454 53.7324 45.2384C53.4551 45.5275 53.1191 45.7462 52.7246 45.8947C52.334 46.0431 51.8926 46.1173 51.4004 46.1173C50.9395 46.1173 50.5156 46.0431 50.1289 45.8947C49.7461 45.7462 49.4121 45.5275 49.127 45.2384C48.8457 44.9454 48.627 44.588 48.4707 44.1661C48.3184 43.7443 48.2422 43.2599 48.2422 42.713C48.2422 41.9865 48.3711 41.3712 48.6289 40.8673C48.8867 40.3634 49.2539 39.9806 49.7305 39.7189C50.207 39.4572 50.7754 39.3263 51.4355 39.3263C52.0488 39.3263 52.5918 39.4572 53.0645 39.7189C53.541 39.9806 53.9141 40.3634 54.1836 40.8673C54.457 41.3712 54.5938 41.9865 54.5938 42.713ZM50.0645 42.713C50.0645 43.1427 50.1113 43.504 50.2051 43.797C50.2988 44.09 50.4453 44.3107 50.6445 44.4591C50.8438 44.6075 51.1035 44.6818 51.4238 44.6818C51.7402 44.6818 51.9961 44.6075 52.1914 44.4591C52.3906 44.3107 52.5352 44.09 52.625 43.797C52.7188 43.504 52.7656 43.1427 52.7656 42.713C52.7656 42.2794 52.7188 41.92 52.625 41.6349C52.5352 41.3458 52.3906 41.129 52.1914 40.9845C51.9922 40.84 51.7324 40.7677 51.4121 40.7677C50.9395 40.7677 50.5957 40.9298 50.3809 41.254C50.1699 41.5782 50.0645 42.0646 50.0645 42.713ZM59.7266 39.3263C59.8164 39.3263 59.9199 39.3322 60.0371 39.3439C60.1582 39.3517 60.2559 39.3634 60.3301 39.379L60.1953 41.0548C60.1367 41.0353 60.0527 41.0216 59.9434 41.0138C59.8379 41.0021 59.7461 40.9962 59.668 40.9962C59.4375 40.9962 59.2129 41.0255 58.9941 41.0841C58.7793 41.1427 58.5859 41.2384 58.4141 41.3712C58.2422 41.5001 58.1055 41.672 58.0039 41.8868C57.9062 42.0978 57.8574 42.3575 57.8574 42.6661V46.0001H56.0703V39.4493H57.4238L57.6875 40.5509H57.7754C57.9043 40.3282 58.0645 40.1251 58.2559 39.9415C58.4512 39.754 58.6719 39.6056 58.918 39.4962C59.168 39.3829 59.4375 39.3263 59.7266 39.3263Z" fill="white"/>
</svg>
