<svg width="120" height="53" viewBox="0 0 120 53" fill="none" xmlns="http://www.w3.org/2000/svg">
<path d="M11.678 23.5639C7.77569 16.5442 3.9237 9.61222 0 2.55347C7.76555 4.76855 15.3864 6.94325 23.1252 9.15104C20.3446 10.6154 17.6934 12.0324 15.0174 13.4028C14.431 13.7031 14.1307 14.0884 13.9738 14.7273C13.312 17.4241 12.5981 20.1075 11.9016 22.7953C11.8442 23.0162 11.7732 23.2322 11.6764 23.5615L11.678 23.5639Z" fill="#6AC37F"/>
<path d="M19 19H103C112.389 19 120 26.6112 120 36C120 45.3888 112.389 53 103 53H34.5191C25.9481 53 19 46.0519 19 37.4809V19Z" fill="#6AC37F"/>
<path d="M33.7822 32.4336C34.5596 32.4336 35.2002 32.5273 35.7041 32.7148C36.2119 32.9023 36.5889 33.1855 36.835 33.5645C37.0811 33.9434 37.2041 34.4219 37.2041 35C37.2041 35.3906 37.1299 35.7324 36.9814 36.0254C36.833 36.3184 36.6377 36.5664 36.3955 36.7695C36.1533 36.9727 35.8916 37.1387 35.6104 37.2676L38.1299 41H36.1143L34.0693 37.7129H33.1025V41H31.2861V32.4336H33.7822ZM33.6533 33.9219H33.1025V36.2363H33.6885C34.29 36.2363 34.7197 36.1367 34.9775 35.9375C35.2393 35.7344 35.3701 35.4375 35.3701 35.0469C35.3701 34.6406 35.2295 34.3516 34.9482 34.1797C34.6709 34.0078 34.2393 33.9219 33.6533 33.9219ZM41.7686 34.3262C42.374 34.3262 42.8955 34.4434 43.333 34.6777C43.7705 34.9082 44.1084 35.2441 44.3467 35.6855C44.585 36.127 44.7041 36.666 44.7041 37.3027V38.1699H40.4795C40.499 38.6738 40.6494 39.0703 40.9307 39.3594C41.2158 39.6445 41.6104 39.7871 42.1143 39.7871C42.5322 39.7871 42.915 39.7441 43.2627 39.6582C43.6104 39.5723 43.9678 39.4434 44.335 39.2715V40.6543C44.0107 40.8145 43.6709 40.9316 43.3154 41.0059C42.9639 41.0801 42.5361 41.1172 42.0322 41.1172C41.376 41.1172 40.7939 40.9961 40.2861 40.7539C39.7822 40.5117 39.3857 40.1426 39.0967 39.6465C38.8115 39.1504 38.6689 38.5254 38.6689 37.7715C38.6689 37.0059 38.7979 36.3691 39.0557 35.8613C39.3174 35.3496 39.6807 34.9668 40.1455 34.7129C40.6104 34.4551 41.1514 34.3262 41.7686 34.3262ZM41.7803 35.5977C41.4326 35.5977 41.1436 35.709 40.9131 35.9316C40.6865 36.1543 40.5557 36.5039 40.5205 36.9805H43.0283C43.0244 36.7148 42.9756 36.4785 42.8818 36.2715C42.792 36.0645 42.6553 35.9004 42.4717 35.7793C42.292 35.6582 42.0615 35.5977 41.7803 35.5977ZM48.8174 41.1172C48.1689 41.1172 47.6162 41 47.1592 40.7656C46.7021 40.5273 46.3545 40.1602 46.1162 39.6641C45.8779 39.168 45.7588 38.5332 45.7588 37.7598C45.7588 36.959 45.8936 36.3066 46.1631 35.8027C46.4365 35.2949 46.8135 34.9219 47.2939 34.6836C47.7783 34.4453 48.3389 34.3262 48.9756 34.3262C49.4287 34.3262 49.8193 34.3711 50.1475 34.4609C50.4795 34.5469 50.7686 34.6504 51.0146 34.7715L50.4873 36.1543C50.2061 36.041 49.9443 35.9492 49.7021 35.8789C49.46 35.8047 49.2178 35.7676 48.9756 35.7676C48.6631 35.7676 48.4033 35.8418 48.1963 35.9902C47.9893 36.1348 47.835 36.3535 47.7334 36.6465C47.6318 36.9395 47.5811 37.3066 47.5811 37.748C47.5811 38.1816 47.6357 38.541 47.7451 38.8262C47.8545 39.1113 48.0127 39.3242 48.2197 39.4648C48.4268 39.6016 48.6787 39.6699 48.9756 39.6699C49.3467 39.6699 49.6768 39.6211 49.9658 39.5234C50.2549 39.4219 50.5361 39.2812 50.8096 39.1016V40.6309C50.5361 40.8027 50.249 40.9258 49.9482 41C49.6514 41.0781 49.2744 41.1172 48.8174 41.1172ZM55.0342 34.3262C55.6396 34.3262 56.1611 34.4434 56.5986 34.6777C57.0361 34.9082 57.374 35.2441 57.6123 35.6855C57.8506 36.127 57.9697 36.666 57.9697 37.3027V38.1699H53.7451C53.7646 38.6738 53.915 39.0703 54.1963 39.3594C54.4814 39.6445 54.876 39.7871 55.3799 39.7871C55.7979 39.7871 56.1807 39.7441 56.5283 39.6582C56.876 39.5723 57.2334 39.4434 57.6006 39.2715V40.6543C57.2764 40.8145 56.9365 40.9316 56.5811 41.0059C56.2295 41.0801 55.8018 41.1172 55.2979 41.1172C54.6416 41.1172 54.0596 40.9961 53.5518 40.7539C53.0479 40.5117 52.6514 40.1426 52.3623 39.6465C52.0771 39.1504 51.9346 38.5254 51.9346 37.7715C51.9346 37.0059 52.0635 36.3691 52.3213 35.8613C52.583 35.3496 52.9463 34.9668 53.4111 34.7129C53.876 34.4551 54.417 34.3262 55.0342 34.3262ZM55.0459 35.5977C54.6982 35.5977 54.4092 35.709 54.1787 35.9316C53.9521 36.1543 53.8213 36.5039 53.7861 36.9805H56.2939C56.29 36.7148 56.2412 36.4785 56.1475 36.2715C56.0576 36.0645 55.9209 35.9004 55.7373 35.7793C55.5576 35.6582 55.3271 35.5977 55.0459 35.5977ZM63.0674 34.3262C63.8057 34.3262 64.4014 34.6133 64.8545 35.1875C65.3115 35.7617 65.54 36.6035 65.54 37.7129C65.54 38.4551 65.4326 39.0801 65.2178 39.5879C65.0029 40.0918 64.7061 40.4727 64.3271 40.7305C63.9482 40.9883 63.5127 41.1172 63.0205 41.1172C62.7041 41.1172 62.4326 41.0781 62.2061 41C61.9795 40.918 61.7861 40.8145 61.626 40.6895C61.4658 40.5605 61.3271 40.4238 61.21 40.2793H61.1162C61.1475 40.4355 61.1709 40.5957 61.1865 40.7598C61.2021 40.9238 61.21 41.084 61.21 41.2402V43.8828H59.4229V34.4492H60.876L61.1279 35.2988H61.21C61.3271 35.123 61.4697 34.9609 61.6377 34.8125C61.8057 34.6641 62.0068 34.5469 62.2412 34.4609C62.4795 34.3711 62.7549 34.3262 63.0674 34.3262ZM62.4932 35.7559C62.1807 35.7559 61.9326 35.8203 61.749 35.9492C61.5654 36.0781 61.4307 36.2715 61.3447 36.5293C61.2627 36.7871 61.2178 37.1133 61.21 37.5078V37.7012C61.21 38.123 61.249 38.4805 61.3271 38.7734C61.4092 39.0664 61.5439 39.2891 61.7314 39.4414C61.9229 39.5938 62.1846 39.6699 62.5166 39.6699C62.79 39.6699 63.0146 39.5938 63.1904 39.4414C63.3662 39.2891 63.4971 39.0664 63.583 38.7734C63.6729 38.4766 63.7178 38.1152 63.7178 37.6895C63.7178 37.0488 63.6182 36.5664 63.4189 36.2422C63.2197 35.918 62.9111 35.7559 62.4932 35.7559ZM69.7764 39.6934C69.9717 39.6934 70.1611 39.6738 70.3447 39.6348C70.5322 39.5957 70.7178 39.5469 70.9014 39.4883V40.8184C70.71 40.9043 70.4717 40.9746 70.1865 41.0293C69.9053 41.0879 69.5967 41.1172 69.2607 41.1172C68.8701 41.1172 68.5186 41.0547 68.2061 40.9297C67.8975 40.8008 67.6533 40.5801 67.4736 40.2676C67.2979 39.9512 67.21 39.5117 67.21 38.9492V35.791H66.3545V35.0352L67.3389 34.4375L67.8545 33.0547H68.9971V34.4492H70.8311V35.791H68.9971V38.9492C68.9971 39.1992 69.0674 39.3867 69.208 39.5117C69.3525 39.6328 69.542 39.6934 69.7764 39.6934ZM74.0186 34.4492V41H72.2314V34.4492H74.0186ZM73.1279 31.8828C73.3936 31.8828 73.6221 31.9453 73.8135 32.0703C74.0049 32.1914 74.1006 32.4199 74.1006 32.7559C74.1006 33.0879 74.0049 33.3184 73.8135 33.4473C73.6221 33.5723 73.3936 33.6348 73.1279 33.6348C72.8584 33.6348 72.6279 33.5723 72.4365 33.4473C72.249 33.3184 72.1553 33.0879 72.1553 32.7559C72.1553 32.4199 72.249 32.1914 72.4365 32.0703C72.6279 31.9453 72.8584 31.8828 73.1279 31.8828ZM81.8525 37.7129C81.8525 38.2598 81.7783 38.7441 81.6299 39.166C81.4854 39.5879 81.2725 39.9453 80.9912 40.2383C80.7139 40.5273 80.3779 40.7461 79.9834 40.8945C79.5928 41.043 79.1514 41.1172 78.6592 41.1172C78.1982 41.1172 77.7744 41.043 77.3877 40.8945C77.0049 40.7461 76.6709 40.5273 76.3857 40.2383C76.1045 39.9453 75.8857 39.5879 75.7295 39.166C75.5771 38.7441 75.501 38.2598 75.501 37.7129C75.501 36.9863 75.6299 36.3711 75.8877 35.8672C76.1455 35.3633 76.5127 34.9805 76.9893 34.7188C77.4658 34.457 78.0342 34.3262 78.6943 34.3262C79.3076 34.3262 79.8506 34.457 80.3232 34.7188C80.7998 34.9805 81.1729 35.3633 81.4424 35.8672C81.7158 36.3711 81.8525 36.9863 81.8525 37.7129ZM77.3232 37.7129C77.3232 38.1426 77.3701 38.5039 77.4639 38.7969C77.5576 39.0898 77.7041 39.3105 77.9033 39.459C78.1025 39.6074 78.3623 39.6816 78.6826 39.6816C78.999 39.6816 79.2549 39.6074 79.4502 39.459C79.6494 39.3105 79.7939 39.0898 79.8838 38.7969C79.9775 38.5039 80.0244 38.1426 80.0244 37.7129C80.0244 37.2793 79.9775 36.9199 79.8838 36.6348C79.7939 36.3457 79.6494 36.1289 79.4502 35.9844C79.251 35.8398 78.9912 35.7676 78.6709 35.7676C78.1982 35.7676 77.8545 35.9297 77.6396 36.2539C77.4287 36.5781 77.3232 37.0645 77.3232 37.7129ZM87.0498 34.3262C87.749 34.3262 88.3115 34.5176 88.7373 34.9004C89.1631 35.2793 89.376 35.8887 89.376 36.7285V41H87.5889V37.1738C87.5889 36.7051 87.5029 36.3516 87.3311 36.1133C87.1631 35.875 86.8975 35.7559 86.5342 35.7559C85.9873 35.7559 85.6143 35.9414 85.415 36.3125C85.2158 36.6836 85.1162 37.2188 85.1162 37.918V41H83.3291V34.4492H84.6943L84.9346 35.2871H85.0342C85.1748 35.0605 85.3486 34.877 85.5557 34.7363C85.7666 34.5957 85.999 34.4922 86.2529 34.4258C86.5107 34.3594 86.7764 34.3262 87.0498 34.3262ZM93.0029 34.4492V41H91.2158V34.4492H93.0029ZM92.1123 31.8828C92.3779 31.8828 92.6064 31.9453 92.7979 32.0703C92.9893 32.1914 93.085 32.4199 93.085 32.7559C93.085 33.0879 92.9893 33.3184 92.7979 33.4473C92.6064 33.5723 92.3779 33.6348 92.1123 33.6348C91.8428 33.6348 91.6123 33.5723 91.4209 33.4473C91.2334 33.3184 91.1396 33.0879 91.1396 32.7559C91.1396 32.4199 91.2334 32.1914 91.4209 32.0703C91.6123 31.9453 91.8428 31.8828 92.1123 31.8828ZM99.4541 39.0547C99.4541 39.5 99.3486 39.877 99.1377 40.1855C98.9307 40.4902 98.6201 40.7227 98.2061 40.8828C97.792 41.0391 97.2764 41.1172 96.6592 41.1172C96.2021 41.1172 95.8096 41.0879 95.4814 41.0293C95.1572 40.9707 94.8291 40.873 94.4971 40.7363V39.2598C94.8525 39.4199 95.2334 39.5527 95.6396 39.6582C96.0498 39.7598 96.4092 39.8105 96.7178 39.8105C97.0654 39.8105 97.3135 39.7598 97.4619 39.6582C97.6143 39.5527 97.6904 39.416 97.6904 39.248C97.6904 39.1387 97.6592 39.041 97.5967 38.9551C97.5381 38.8652 97.4092 38.7656 97.21 38.6562C97.0107 38.543 96.6982 38.3965 96.2725 38.2168C95.8623 38.0449 95.5244 37.8711 95.2588 37.6953C94.9971 37.5195 94.8018 37.3125 94.6729 37.0742C94.5479 36.832 94.4854 36.5254 94.4854 36.1543C94.4854 35.5488 94.7197 35.0938 95.1885 34.7891C95.6611 34.4805 96.292 34.3262 97.0811 34.3262C97.4873 34.3262 97.874 34.3672 98.2412 34.4492C98.6123 34.5312 98.9932 34.6621 99.3838 34.8418L98.8447 36.1309C98.5205 35.9902 98.2139 35.875 97.9248 35.7852C97.6396 35.6953 97.3486 35.6504 97.0518 35.6504C96.79 35.6504 96.5928 35.6855 96.46 35.7559C96.3271 35.8262 96.2607 35.9336 96.2607 36.0781C96.2607 36.1836 96.2939 36.2773 96.3604 36.3594C96.4307 36.4414 96.5635 36.5332 96.7588 36.6348C96.958 36.7324 97.249 36.8594 97.6318 37.0156C98.0029 37.168 98.3252 37.3281 98.5986 37.4961C98.8721 37.6602 99.083 37.8652 99.2314 38.1113C99.3799 38.3535 99.4541 38.668 99.4541 39.0547ZM103.608 39.6934C103.804 39.6934 103.993 39.6738 104.177 39.6348C104.364 39.5957 104.55 39.5469 104.733 39.4883V40.8184C104.542 40.9043 104.304 40.9746 104.019 41.0293C103.737 41.0879 103.429 41.1172 103.093 41.1172C102.702 41.1172 102.351 41.0547 102.038 40.9297C101.729 40.8008 101.485 40.5801 101.306 40.2676C101.13 39.9512 101.042 39.5117 101.042 38.9492V35.791H100.187V35.0352L101.171 34.4375L101.687 33.0547H102.829V34.4492H104.663V35.791H102.829V38.9492C102.829 39.1992 102.899 39.3867 103.04 39.5117C103.185 39.6328 103.374 39.6934 103.608 39.6934Z" fill="white"/>
</svg>
