<svg width="128" height="53" viewBox="0 0 128 53" fill="none" xmlns="http://www.w3.org/2000/svg">
<path d="M11.678 23.5638C7.77569 16.5441 3.9237 9.6121 0 2.55334C7.76555 4.76843 15.3864 6.94313 23.1252 9.15092C20.3446 10.6153 17.6934 12.0322 15.0174 13.4027C14.431 13.703 14.1307 14.0883 13.9738 14.7271C13.312 17.424 12.5981 20.1073 11.9016 22.7952C11.8442 23.0161 11.7732 23.2321 11.6764 23.5614L11.678 23.5638Z" fill="#6AC37F"/>
<path d="M19 18.9999H111C120.389 18.9999 128 26.611 128 35.9999C128 45.3887 120.389 52.9999 111 52.9999H34.5191C25.9481 52.9999 19 46.0518 19 37.4808V18.9999Z" fill="#6AC37F"/>
<path d="M33.2896 32.6142C33.9598 32.6142 34.5121 32.695 34.9466 32.8567C35.3844 33.0183 35.7094 33.2625 35.9216 33.5892C36.1337 33.9158 36.2398 34.3284 36.2398 34.8269C36.2398 35.1636 36.1758 35.4583 36.0479 35.7109C35.9199 35.9635 35.7515 36.1774 35.5427 36.3525C35.3339 36.5276 35.1082 36.6708 34.8658 36.7819L37.038 39.9999H35.3002L33.5371 37.1658H32.7036V39.9999H31.1375V32.6142H33.2896ZM33.1785 33.8973H32.7036V35.8928H33.2088C33.7274 35.8928 34.0979 35.8069 34.3202 35.6351C34.5458 35.46 34.6586 35.2041 34.6586 34.8673C34.6586 34.517 34.5374 34.2678 34.2949 34.1196C34.0558 33.9714 33.6836 33.8973 33.1785 33.8973ZM40.1752 34.2459C40.6972 34.2459 41.1468 34.3469 41.524 34.549C41.9012 34.7477 42.1925 35.0373 42.398 35.4179C42.6034 35.7985 42.7061 36.2632 42.7061 36.8122V37.5599H39.0638C39.0806 37.9943 39.2103 38.3362 39.4528 38.5854C39.6986 38.8312 40.0388 38.9542 40.4732 38.9542C40.8336 38.9542 41.1636 38.9171 41.4634 38.843C41.7631 38.7689 42.0713 38.6578 42.3879 38.5096V39.7018C42.1083 39.8399 41.8153 39.9409 41.5088 40.0049C41.2057 40.0689 40.837 40.1009 40.4025 40.1009C39.8367 40.1009 39.3349 39.9965 38.8971 39.7877C38.4626 39.5789 38.1208 39.2606 37.8716 38.8329C37.6257 38.4052 37.5028 37.8663 37.5028 37.2163C37.5028 36.5562 37.6139 36.0073 37.8362 35.5695C38.0618 35.1283 38.3751 34.7982 38.7758 34.5793C39.1766 34.357 39.6431 34.2459 40.1752 34.2459ZM40.1853 35.3421C39.8855 35.3421 39.6363 35.4381 39.4376 35.6301C39.2423 35.8221 39.1295 36.1235 39.0991 36.5344H41.2613C41.2579 36.3053 41.2158 36.1016 41.135 35.9231C41.0576 35.7446 40.9397 35.6031 40.7814 35.4987C40.6265 35.3943 40.4278 35.3421 40.1853 35.3421ZM46.2525 40.1009C45.6934 40.1009 45.2169 39.9999 44.8228 39.7978C44.4288 39.5924 44.129 39.2758 43.9236 38.8481C43.7182 38.4204 43.6154 37.8731 43.6154 37.2062C43.6154 36.5158 43.7316 35.9534 43.964 35.5189C44.1998 35.0811 44.5248 34.7595 44.939 34.5541C45.3566 34.3486 45.8399 34.2459 46.3889 34.2459C46.7795 34.2459 47.1163 34.2846 47.3992 34.3621C47.6855 34.4362 47.9347 34.5254 48.1469 34.6298L47.6922 35.8221C47.4497 35.7244 47.2241 35.6452 47.0153 35.5846C46.8065 35.5206 46.5977 35.4886 46.3889 35.4886C46.1194 35.4886 45.8955 35.5526 45.717 35.6806C45.5385 35.8052 45.4055 35.9938 45.3179 36.2464C45.2303 36.499 45.1865 36.8156 45.1865 37.1961C45.1865 37.57 45.2337 37.8798 45.328 38.1257C45.4223 38.3715 45.5587 38.5551 45.7372 38.6763C45.9157 38.7942 46.1329 38.8531 46.3889 38.8531C46.7088 38.8531 46.9934 38.811 47.2426 38.7268C47.4918 38.6393 47.7343 38.518 47.9701 38.3631V39.6816C47.7343 39.8298 47.4868 39.9359 47.2275 39.9999C46.9715 40.0672 46.6465 40.1009 46.2525 40.1009ZM51.6124 34.2459C52.1344 34.2459 52.584 34.3469 52.9612 34.549C53.3384 34.7477 53.6298 35.0373 53.8352 35.4179C54.0406 35.7985 54.1434 36.2632 54.1434 36.8122V37.5599H50.501C50.5179 37.9943 50.6475 38.3362 50.89 38.5854C51.1359 38.8312 51.476 38.9542 51.9105 38.9542C52.2708 38.9542 52.6009 38.9171 52.9006 38.843C53.2004 38.7689 53.5085 38.6578 53.8251 38.5096V39.7018C53.5456 39.8399 53.2526 39.9409 52.9461 40.0049C52.643 40.0689 52.2742 40.1009 51.8397 40.1009C51.2739 40.1009 50.7721 39.9965 50.3343 39.7877C49.8999 39.5789 49.558 39.2606 49.3088 38.8329C49.0629 38.4052 48.94 37.8663 48.94 37.2163C48.94 36.5562 49.0512 36.0073 49.2734 35.5695C49.4991 35.1283 49.8123 34.7982 50.2131 34.5793C50.6138 34.357 51.0803 34.2459 51.6124 34.2459ZM51.6225 35.3421C51.3228 35.3421 51.0736 35.4381 50.8749 35.6301C50.6795 35.8221 50.5667 36.1235 50.5364 36.5344H52.6985C52.6952 36.3053 52.6531 36.1016 52.5722 35.9231C52.4948 35.7446 52.3769 35.6031 52.2186 35.4987C52.0637 35.3943 51.865 35.3421 51.6225 35.3421ZM58.5384 34.2459C59.1749 34.2459 59.6885 34.4934 60.0792 34.9885C60.4732 35.4836 60.6703 36.2094 60.6703 37.1658C60.6703 37.8057 60.5776 38.3446 60.3924 38.7824C60.2072 39.2169 59.9512 39.5452 59.6245 39.7675C59.2979 39.9898 58.9223 40.1009 58.498 40.1009C58.2252 40.1009 57.9911 40.0672 57.7958 39.9999C57.6005 39.9292 57.4337 39.8399 57.2957 39.7321C57.1576 39.621 57.038 39.5031 56.937 39.3785H56.8562C56.8831 39.5132 56.9033 39.6513 56.9168 39.7928C56.9303 39.9342 56.937 40.0723 56.937 40.207V42.4854H55.3962V34.352H56.649L56.8663 35.0845H56.937C57.038 34.9329 57.161 34.7932 57.3058 34.6652C57.4506 34.5372 57.624 34.4362 57.8261 34.3621C58.0315 34.2846 58.269 34.2459 58.5384 34.2459ZM58.0433 35.4785C57.7739 35.4785 57.56 35.5341 57.4018 35.6452C57.2435 35.7564 57.1273 35.9231 57.0532 36.1454C56.9825 36.3676 56.9437 36.6489 56.937 36.989V37.1557C56.937 37.5195 56.9707 37.8276 57.038 38.0802C57.1088 38.3328 57.2249 38.5248 57.3866 38.6561C57.5516 38.7875 57.7773 38.8531 58.0635 38.8531C58.2993 38.8531 58.4929 38.7875 58.6445 38.6561C58.796 38.5248 58.9089 38.3328 58.983 38.0802C59.0604 37.8242 59.0992 37.5127 59.0992 37.1456C59.0992 36.5933 59.0133 36.1774 58.8415 35.8978C58.6698 35.6183 58.4037 35.4785 58.0433 35.4785ZM64.3227 38.8733C64.4911 38.8733 64.6544 38.8565 64.8127 38.8228C64.9744 38.7891 65.1343 38.747 65.2926 38.6965V39.8433C65.1276 39.9174 64.9222 39.978 64.6763 40.0251C64.4338 40.0757 64.1678 40.1009 63.8781 40.1009C63.5414 40.1009 63.2382 40.047 62.9688 39.9393C62.7028 39.8281 62.4923 39.6378 62.3373 39.3684C62.1858 39.0956 62.11 38.7167 62.11 38.2318V35.5088H61.3725V34.8572L62.2212 34.3419L62.6657 33.1497H63.6508V34.352H65.232V35.5088H63.6508V38.2318C63.6508 38.4473 63.7114 38.609 63.8327 38.7167C63.9573 38.8211 64.1206 38.8733 64.3227 38.8733ZM67.9802 34.352V39.9999H66.4394V34.352H67.9802ZM67.2123 32.1393C67.4413 32.1393 67.6383 32.1932 67.8034 32.301C67.9684 32.4054 68.0509 32.6024 68.0509 32.892C68.0509 33.1783 67.9684 33.377 67.8034 33.4881C67.6383 33.5959 67.4413 33.6498 67.2123 33.6498C66.9799 33.6498 66.7812 33.5959 66.6162 33.4881C66.4545 33.377 66.3737 33.1783 66.3737 32.892C66.3737 32.6024 66.4545 32.4054 66.6162 32.301C66.7812 32.1932 66.9799 32.1393 67.2123 32.1393ZM74.7344 37.1658C74.7344 37.6373 74.6704 38.0549 74.5425 38.4187C74.4178 38.7824 74.2343 39.0906 73.9918 39.3431C73.7527 39.5924 73.4631 39.781 73.1229 39.9089C72.7861 40.0369 72.4056 40.1009 71.9812 40.1009C71.5838 40.1009 71.2184 40.0369 70.885 39.9089C70.5549 39.781 70.267 39.5924 70.0211 39.3431C69.7786 39.0906 69.59 38.7824 69.4553 38.4187C69.324 38.0549 69.2583 37.6373 69.2583 37.1658C69.2583 36.5394 69.3694 36.009 69.5917 35.5745C69.814 35.1401 70.1306 34.81 70.5414 34.5844C70.9523 34.3587 71.4423 34.2459 72.0115 34.2459C72.5403 34.2459 73.0084 34.3587 73.4159 34.5844C73.8268 34.81 74.1484 35.1401 74.3808 35.5745C74.6165 36.009 74.7344 36.5394 74.7344 37.1658ZM70.8294 37.1658C70.8294 37.5363 70.8698 37.8478 70.9506 38.1004C71.0315 38.353 71.1578 38.5433 71.3295 38.6713C71.5013 38.7992 71.7252 38.8632 72.0014 38.8632C72.2742 38.8632 72.4948 38.7992 72.6632 38.6713C72.835 38.5433 72.9596 38.353 73.037 38.1004C73.1179 37.8478 73.1583 37.5363 73.1583 37.1658C73.1583 36.792 73.1179 36.4822 73.037 36.2363C72.9596 35.9871 72.835 35.8002 72.6632 35.6756C72.4914 35.5509 72.2675 35.4886 71.9913 35.4886C71.5838 35.4886 71.2874 35.6284 71.1022 35.9079C70.9203 36.1875 70.8294 36.6068 70.8294 37.1658ZM79.2154 34.2459C79.8182 34.2459 80.3032 34.4109 80.6703 34.741C81.0374 35.0677 81.2209 35.593 81.2209 36.3171V39.9999H79.6801V36.7011C79.6801 36.2969 79.606 35.9921 79.4578 35.7867C79.313 35.5813 79.084 35.4785 78.7708 35.4785C78.2993 35.4785 77.9777 35.6385 77.8059 35.9585C77.6341 36.2784 77.5483 36.7398 77.5483 37.3426V39.9999H76.0075V34.352H77.1845L77.3917 35.0744H77.4775C77.5988 34.8791 77.7487 34.7208 77.9271 34.5995C78.109 34.4783 78.3094 34.389 78.5283 34.3318C78.7506 34.2745 78.9796 34.2459 79.2154 34.2459ZM84.348 34.352V39.9999H82.8072V34.352H84.348ZM83.5801 32.1393C83.8091 32.1393 84.0061 32.1932 84.1712 32.301C84.3362 32.4054 84.4187 32.6024 84.4187 32.892C84.4187 33.1783 84.3362 33.377 84.1712 33.4881C84.0061 33.5959 83.8091 33.6498 83.5801 33.6498C83.3477 33.6498 83.149 33.5959 82.984 33.4881C82.8223 33.377 82.7415 33.1783 82.7415 32.892C82.7415 32.6024 82.8223 32.4054 82.984 32.301C83.149 32.1932 83.3477 32.1393 83.5801 32.1393ZM89.91 38.3227C89.91 38.7066 89.819 39.0316 89.6372 39.2977C89.4587 39.5604 89.1909 39.7608 88.8339 39.8988C88.477 40.0336 88.0324 40.1009 87.5003 40.1009C87.1062 40.1009 86.7678 40.0757 86.4849 40.0251C86.2053 39.9746 85.9224 39.8904 85.6362 39.7725V38.4995C85.9426 38.6376 86.271 38.7521 86.6213 38.843C86.9749 38.9306 87.2847 38.9744 87.5508 38.9744C87.8505 38.9744 88.0644 38.9306 88.1924 38.843C88.3237 38.7521 88.3894 38.6342 88.3894 38.4894C88.3894 38.3951 88.3624 38.3109 88.3086 38.2368C88.258 38.1593 88.1469 38.0735 87.9751 37.9792C87.8034 37.8815 87.534 37.7552 87.1669 37.6003C86.8132 37.4521 86.5219 37.3022 86.2929 37.1507C86.0673 36.9991 85.8989 36.8206 85.7877 36.6152C85.68 36.4064 85.6261 36.142 85.6261 35.8221C85.6261 35.3 85.8281 34.9077 86.2323 34.645C86.6398 34.3789 87.1837 34.2459 87.864 34.2459C88.2143 34.2459 88.5477 34.2813 88.8643 34.352C89.1842 34.4227 89.5126 34.5355 89.8494 34.6905L89.3846 35.8018C89.1051 35.6806 88.8407 35.5813 88.5915 35.5038C88.3456 35.4263 88.0947 35.3876 87.8387 35.3876C87.6131 35.3876 87.443 35.4179 87.3285 35.4785C87.214 35.5392 87.1568 35.6318 87.1568 35.7564C87.1568 35.8473 87.1854 35.9281 87.2426 35.9989C87.3033 36.0696 87.4178 36.1487 87.5862 36.2363C87.7579 36.3205 88.0088 36.43 88.3389 36.5647C88.6588 36.696 88.9367 36.8341 89.1724 36.9789C89.4082 37.1204 89.59 37.2972 89.718 37.5093C89.846 37.7182 89.91 37.9893 89.91 38.3227ZM93.4917 38.8733C93.6601 38.8733 93.8234 38.8565 93.9817 38.8228C94.1434 38.7891 94.3033 38.747 94.4616 38.6965V39.8433C94.2966 39.9174 94.0912 39.978 93.8453 40.0251C93.6028 40.0757 93.3368 40.1009 93.0471 40.1009C92.7103 40.1009 92.4072 40.047 92.1378 39.9393C91.8718 39.8281 91.6613 39.6378 91.5063 39.3684C91.3548 39.0956 91.279 38.7167 91.279 38.2318V35.5088H90.5414V34.8572L91.3901 34.3419L91.8347 33.1497H92.8198V34.352H94.401V35.5088H92.8198V38.2318C92.8198 38.4473 92.8804 38.609 93.0017 38.7167C93.1263 38.8211 93.2896 38.8733 93.4917 38.8733Z" fill="white"/>
<path d="M100.381 43.5452H115.314V28.6124H100.381V43.5452Z" fill="black"/>
</svg>
