<svg width="170" height="262" viewBox="0 0 170 262" fill="none" xmlns="http://www.w3.org/2000/svg">
<mask id="mask0_1099_1899" style="mask-type:alpha" maskUnits="userSpaceOnUse" x="0" y="0" width="164" height="262">
<rect width="164" height="262" fill="white"/>
</mask>
<g mask="url(#mask0_1099_1899)">
<path d="M-199.323 115.348C-162.692 119.773 -133.612 153.211 -122.952 186.7C-121.842 190.194 -120.838 193.849 -121.356 197.48C-121.874 201.11 -124.296 204.705 -127.874 205.487C-133.262 206.664 -138.107 200.645 -137.681 195.146C-137.255 189.648 -133.3 185.081 -129.115 181.489C-112.613 167.332 -89.1503 161.906 -67.9819 166.855C-46.8064 171.805 -28.346 186.848 -18.7357 206.357C-14.5169 214.924 -11.9202 224.835 -14.4351 234.048C-16.9572 243.261 -25.8304 251.15 -35.3132 250.026C-47.1757 248.622 -53.5546 235.205 -55.1155 223.36C-59.9182 186.785 -37.9699 149.025 -4.93439 132.608C28.1011 116.191 69.7568 120.66 100.271 141.386C107.264 146.133 114.241 152.62 114.835 161.046C115.452 169.756 108.778 177.564 100.983 181.493C84.8843 189.614 64.3517 184.547 50.7764 172.674C27.5155 152.326 24.0614 113.919 41.4891 88.3969C58.9301 62.8841 94.0107 51.9101 123.653 60.6507" stroke="#DADADA" stroke-linecap="round" stroke-linejoin="round" stroke-dasharray="4 4"/>
</g>
<path d="M113.254 58.0029L123.201 58.2978L122.985 65.5327L113.26 58.0051L113.254 58.0029Z" fill="#3D7F4D"/>
<path d="M117.562 80.5784L121.539 60.0192L113.506 57.9681L122.066 54.472L122.362 39.568L162.985 75.4034L117.562 80.5784Z" fill="#6AC37F"/>
<path d="M121.605 54.6086L113.271 58.0533L121.14 60.4173L162.99 75.4181L121.605 54.6086Z" fill="#4CAA62"/>
</svg>
