<svg width="21" height="23" viewBox="0 0 21 23" fill="none" xmlns="http://www.w3.org/2000/svg">
<path d="M10.501 5.91613C11.9967 5.91613 13.2091 4.70369 13.2091 3.20807C13.2091 1.71244 11.9967 0.5 10.501 0.5C9.00541 0.5 7.79297 1.71244 7.79297 3.20807C7.79297 4.70369 9.00541 5.91613 10.501 5.91613Z" fill="#343F4C"/>
<path d="M3.10846 18.4452C4.60408 18.4452 5.81652 17.2327 5.81652 15.7371C5.81652 14.2415 4.60408 13.0291 3.10846 13.0291C1.61283 13.0291 0.400391 14.2415 0.400391 15.7371C0.400391 17.2327 1.61283 18.4452 3.10846 18.4452Z" fill="#343F4C"/>
<path d="M10.501 22.4999C11.9967 22.4999 13.2091 21.2874 13.2091 19.7918C13.2091 18.2962 11.9967 17.0837 10.501 17.0837C9.00541 17.0837 7.79297 18.2962 7.79297 19.7918C7.79297 21.2874 9.00541 22.4999 10.501 22.4999Z" fill="#343F4C"/>
<path d="M17.8018 18.4452C19.2974 18.4452 20.5099 17.2327 20.5099 15.7371C20.5099 14.2415 19.2974 13.0291 17.8018 13.0291C16.3062 13.0291 15.0938 14.2415 15.0938 15.7371C15.0938 17.2327 16.3062 18.4452 17.8018 18.4452Z" fill="#343F4C"/>
<path d="M20.3211 5.38932C19.626 4.5621 18.4722 4.21815 17.4404 4.53888C16.8425 4.72464 16.3679 5.0744 16.0355 5.51558C15.9499 5.62878 15.8614 5.74053 15.7714 5.85083C14.9964 7.21647 13.6584 8.22075 12.0692 8.53858C11.911 8.5705 11.7485 8.59082 11.5845 8.60679C11.2333 8.675 10.8705 8.71273 10.5004 8.71273C10.1303 8.71273 9.76752 8.675 9.41631 8.60679C9.25232 8.59082 9.08978 8.5705 8.93159 8.53858C7.34245 8.2193 6.00438 7.21647 5.2294 5.85083C5.13942 5.74053 5.0509 5.62878 4.96527 5.51558C4.63293 5.07585 4.15837 4.72464 3.56044 4.53888C2.52859 4.21815 1.37483 4.56065 0.679675 5.38932C-0.463924 6.75061 -0.0590203 8.73595 1.41111 9.57333C1.76958 9.77796 2.15416 9.89116 2.53875 9.92309C2.71145 9.9376 2.8827 9.95792 3.05395 9.98259C3.07282 9.98259 3.09023 9.97969 3.1091 9.97969C5.13362 9.97969 6.89836 11.0754 7.8562 12.7037C7.97085 12.8459 8.08405 12.9911 8.18999 13.1405C8.41349 13.4555 8.70809 13.7283 9.06656 13.9315C9.13622 13.9707 9.20733 14.0041 9.27989 14.0374C9.29295 14.0432 9.30456 14.0505 9.31617 14.0563C9.35971 14.0752 9.4047 14.0911 9.44969 14.1085C9.78348 14.245 10.1405 14.3161 10.5004 14.3175C10.8589 14.3175 11.2173 14.245 11.5511 14.1085C11.5961 14.0911 11.6397 14.0752 11.6846 14.0563C11.6977 14.0505 11.7093 14.0447 11.7209 14.0374C11.792 14.0041 11.8646 13.9707 11.9343 13.9315C12.2927 13.7269 12.5873 13.4555 12.8108 13.1405C12.9168 12.9911 13.03 12.8459 13.1446 12.7037C14.101 11.0754 15.8672 9.97969 17.8917 9.97969C17.9106 9.97969 17.9295 9.98259 17.9469 9.98259C18.1181 9.95792 18.2894 9.9376 18.4621 9.92309C18.8481 9.89116 19.2327 9.77651 19.5897 9.57333C21.0598 8.7374 21.4647 6.75206 20.3211 5.38932Z" fill="#343F4C"/>
</svg>
