<svg width="22" height="22" viewBox="0 0 22 22" fill="none" xmlns="http://www.w3.org/2000/svg">
<path d="M8.51238 11.6001C9.01594 12.5448 9.86363 13.1043 10.6435 13.7669C11.4217 13.1092 12.2702 12.5512 12.7753 11.5957C13.1905 11.622 13.6058 11.7573 14.0021 11.9658C15.2513 12.6223 15.983 14.0013 15.8208 15.3959C15.7308 16.1688 15.2389 16.6323 14.3679 16.7466C14.078 16.7846 13.7836 16.8084 13.4917 16.8092C11.5084 16.8129 9.52512 16.8137 7.54222 16.8011C7.23422 16.7991 6.92101 16.7518 6.62024 16.6819C5.98899 16.5357 5.57779 16.1422 5.48704 15.4832C5.19912 13.3892 6.7905 11.7343 8.51279 11.5997L8.51238 11.6001ZM12.8191 14.3326C12.6472 14.5431 12.2071 14.1188 12.1935 14.6372C12.1895 14.7859 12.1678 15.0335 12.2348 15.0659C12.4055 15.1479 12.6215 15.1333 12.793 15.1543C12.9825 15.3382 12.5974 15.7491 13.0781 15.7838C13.2271 15.7947 13.4801 15.8218 13.5098 15.7588C13.5937 15.579 13.5869 15.3563 13.6114 15.1786C13.7953 14.9907 14.2017 15.3786 14.2382 14.8921C14.2495 14.7426 14.2727 14.4889 14.2085 14.4586C14.0306 14.3742 13.8093 14.3822 13.6323 14.3576C13.4335 14.1782 13.8447 13.7435 13.3327 13.7245C13.1849 13.7188 12.9396 13.7007 12.9066 13.7693C12.8251 13.9411 12.84 14.1588 12.8191 14.3326Z" fill="#343F4C"/>
<path d="M7.78765 8.24218C7.75593 6.43175 9.1132 5.13079 10.8102 5.19019C12.3855 5.24513 13.6299 6.67537 13.4874 8.28783C13.3802 9.49828 12.9043 10.5496 12.037 11.3992C11.1636 12.2545 10.1183 12.2509 9.24571 11.3923C8.32896 10.4902 7.8772 9.36778 7.78765 8.24258V8.24218ZM8.91603 6.77759C8.4442 7.31413 8.11091 7.90684 8.20327 8.60297C8.33056 9.56454 8.75903 10.4126 9.48183 11.0744C10.2508 11.7782 11.1009 11.7568 11.8567 11.0328C12.4867 10.4292 12.8686 9.67727 13.0441 8.82882C13.0979 8.56903 13.077 8.27611 13.018 8.01471C12.926 7.60988 12.6566 7.46484 12.2421 7.49918C11.7029 7.54402 11.1616 7.61756 10.6235 7.60059C9.9625 7.57958 9.29952 7.48827 8.91644 6.77719L8.91603 6.77759Z" fill="#343F4C"/>
<path d="M19.2423 3.47877C19.7109 3.19918 20.1856 2.91596 20.6939 2.61254C20.718 4.42822 20.7421 6.20754 20.7662 8.02968C19.1889 7.14164 17.6421 6.27057 16.0672 5.38374C16.5426 5.09728 16.992 4.82618 17.4979 4.52115C17.008 4.12965 16.5699 3.73169 16.0865 3.4012C14.0337 1.99762 11.7625 1.41138 9.31577 1.8546C5.23392 2.59396 2.52701 5.00274 1.48215 9.03853C0.535679 12.6937 1.48778 15.9433 4.224 18.5674C6.32014 20.5774 8.86562 21.5156 11.7629 21.3657C14.2228 21.2384 16.3282 20.2376 18.081 18.5113C19.8651 16.7542 20.9011 14.6116 21.1975 12.1156C21.2521 11.6554 21.2529 11.1891 21.2762 10.7605C21.3814 12.5172 21.0525 14.2286 20.2811 15.8427C19.015 18.4906 17.0377 20.3924 14.2742 21.3822C11.4725 22.3862 8.72427 22.1382 6.05993 20.8368C4.18224 19.9197 2.68322 18.5686 1.58415 16.7881C0.343332 14.7793 -0.160223 12.5745 0.0441704 10.2247C0.33771 6.84913 1.854 4.13733 4.57095 2.1358C6.26552 0.88696 8.18457 0.203353 10.2811 0.0348754C11.8797 -0.0936039 13.4297 0.135073 14.934 0.684948C16.5173 1.26391 17.8971 2.16771 19.0953 3.35594C19.1287 3.38907 19.1612 3.42301 19.1953 3.45493C19.2046 3.46341 19.2186 3.46665 19.2423 3.47796V3.47877Z" fill="#343F4C"/>
</svg>
