<svg width="19" height="22" viewBox="0 0 19 22" fill="none" xmlns="http://www.w3.org/2000/svg">
<path d="M18.8654 9.31586C18.8421 9.31693 18.8192 9.3188 18.796 9.3188C16.9127 9.3188 15.0297 9.3188 13.1464 9.3188H13.0754C13.0411 8.13391 12.5664 7.16824 11.6139 6.44873C10.9216 5.92549 10.1287 5.69081 9.25864 5.73134C8.29298 5.77668 7.46476 6.14017 6.79641 6.83195C6.12805 7.52374 5.81048 8.36033 5.79617 9.3188C5.77187 9.3188 5.75135 9.3188 5.73055 9.3188C3.83972 9.3188 1.94862 9.3188 0.0577889 9.3188C0.0386159 9.3188 0.0191729 9.31693 0 9.31586C0 9.18225 0 9.04838 0 8.91477C0.00459071 8.89877 0.0108017 8.88303 0.0140422 8.8665C0.0423965 8.71769 0.0950546 8.57981 0.1974 8.46434C0.269772 8.38273 0.357535 8.32566 0.467712 8.31019C0.594091 8.29259 0.720741 8.27819 0.84712 8.26166C1.14795 8.22219 1.45147 8.19712 1.74879 8.13978C3.35365 7.83122 4.07061 5.95242 3.07631 4.67153C2.84813 4.37765 2.6194 4.08402 2.38933 3.79174C2.31264 3.6944 2.28239 3.58586 2.29265 3.46505C2.31075 3.2509 2.4139 3.07729 2.56215 2.92714C2.69447 2.793 2.82896 2.66152 2.96371 2.53005C3.07982 2.41697 3.21349 2.33163 3.37201 2.2879C3.5524 2.23803 3.71523 2.26016 3.86754 2.38044C4.14838 2.60232 4.43462 2.81727 4.72087 3.03195C5.26392 3.43918 5.87151 3.57545 6.53798 3.43651C7.42722 3.25117 8.10206 2.56018 8.24977 1.67559C8.31539 1.28222 8.3586 0.88513 8.40936 0.489368C8.42395 0.375493 8.47309 0.282687 8.55681 0.205615C8.64187 0.127209 8.74232 0.075472 8.85331 0.0432031C8.91056 0.0266686 8.96889 0.0141343 9.02668 0C9.29753 0 9.56811 0 9.83896 0C9.8576 0.00453366 9.87596 0.0101341 9.89459 0.013601C10.045 0.0421363 10.1846 0.0944067 10.301 0.196547C10.3828 0.268552 10.4398 0.355225 10.4544 0.464833C10.4973 0.790456 10.5422 1.11581 10.5818 1.4417C10.6124 1.69105 10.6588 1.9356 10.7606 2.16762C11.3331 3.47278 12.9968 3.90028 14.141 3.03542C14.4389 2.81033 14.7359 2.58418 15.0321 2.35697C15.1345 2.27856 15.249 2.25109 15.3751 2.26469C15.5911 2.2879 15.7645 2.39324 15.9157 2.54045C16.0437 2.66526 16.1706 2.79087 16.2973 2.91727C16.4061 3.02582 16.4922 3.14929 16.5406 3.2957C16.604 3.48798 16.5862 3.66266 16.4515 3.82774C16.2284 4.10109 16.0143 4.38218 15.7988 4.6614C15.4005 5.17717 15.2528 5.75748 15.3759 6.39379C15.5628 7.35866 16.2878 7.98857 17.1069 8.13551C17.5249 8.21045 17.9489 8.25152 18.3707 8.30539C18.4903 8.32059 18.5945 8.36673 18.6639 8.4606C18.7268 8.54568 18.7738 8.64302 18.8197 8.73849C18.844 8.78889 18.8508 8.84756 18.8656 8.9025V9.31506L18.8654 9.31586Z" fill="#36404E"/>
<path d="M9.10717 22.0001C9.0186 21.9931 8.9303 21.9854 8.84172 21.9795C7.95518 21.9203 7.09969 21.7262 6.27498 21.4003C6.19235 21.3677 6.10971 21.3352 6.02951 21.2976C6.01061 21.2888 5.99657 21.2608 5.98982 21.2389C5.98306 21.216 5.98819 21.1896 5.98819 21.1648C5.98819 20.2826 5.9863 19.4004 5.98874 18.5179C5.99144 17.4536 6.71839 16.5442 7.76642 16.3023C7.94168 16.2618 8.12584 16.2434 8.30623 16.2418C9.05641 16.2351 9.80685 16.238 10.557 16.2391C11.6818 16.241 12.6215 17.0024 12.8356 18.088C12.861 18.2166 12.8748 18.3494 12.8753 18.4806C12.8786 19.3953 12.8767 20.3101 12.878 21.2248C12.878 21.2672 12.8656 21.2883 12.8254 21.3053C11.9807 21.6656 11.1012 21.8889 10.1844 21.9667C10.0421 21.9787 9.89948 21.9889 9.75716 21.9998H9.10745L9.10717 22.0001Z" fill="#36404E"/>
<path d="M11.8223 15.973C11.9222 15.8153 12.0391 15.6737 12.1747 15.5481C12.6248 15.131 13.1579 14.9172 13.7766 14.9169C14.5578 14.9169 15.339 14.9089 16.12 14.9198C17.1802 14.9348 18.1134 15.7201 18.3068 16.7488C18.3343 16.8962 18.3484 17.0482 18.3489 17.1981C18.3527 18.0995 18.3505 19.0006 18.3521 19.902C18.3521 19.946 18.3365 19.9652 18.2976 19.9818C17.4675 20.3351 16.6034 20.5565 15.7028 20.6389C14.9612 20.7066 14.2237 20.6794 13.4892 20.5597C13.4398 20.5517 13.4274 20.5352 13.4274 20.4874C13.429 19.8343 13.435 19.1812 13.4269 18.5283C13.4142 17.4979 12.9629 16.6994 12.0953 16.1298C12.0091 16.0732 11.916 16.0266 11.8225 15.973H11.8223Z" fill="#36404E"/>
<path d="M7.04799 15.9774C6.81792 16.0907 6.60837 16.2235 6.4215 16.3886C5.78501 16.9513 5.45178 17.654 5.44287 18.4989C5.43584 19.1613 5.44098 19.824 5.4426 20.4865C5.4426 20.5332 5.43206 20.5516 5.38184 20.5596C3.72864 20.8252 2.13108 20.638 0.589139 19.9902C0.532971 19.9667 0.517578 19.9377 0.517578 19.8803C0.519198 18.9811 0.518118 18.0815 0.518928 17.1823C0.520279 15.9504 1.52456 14.9357 2.77162 14.9194C3.57391 14.909 4.37674 14.9029 5.17877 14.9224C5.96999 14.9416 6.58379 15.3056 7.03098 15.947C7.03638 15.9544 7.04016 15.963 7.04826 15.9774H7.04799Z" fill="#36404E"/>
<path d="M9.43369 15.6978C9.2209 15.6978 9.00838 15.6983 8.79558 15.697C8.76534 15.697 8.73374 15.6919 8.70512 15.6823C7.7354 15.3583 7.09459 14.4387 7.14104 13.4395C7.18857 12.4191 7.89905 11.5657 8.90117 11.3252C10.2163 11.0094 11.5349 11.9026 11.7112 13.2277C11.8552 14.3105 11.2197 15.3241 10.1733 15.6799C10.1412 15.6908 10.1058 15.6967 10.0718 15.697C9.85901 15.6986 9.64649 15.6978 9.43369 15.6978Z" fill="#36404E"/>
<path d="M14.9024 14.3731C14.6937 14.3731 14.4847 14.3739 14.2759 14.3723C14.2381 14.3721 14.1987 14.3659 14.1628 14.3537C13.1807 14.0198 12.5479 13.0834 12.6141 12.0623C12.68 11.042 13.4291 10.1928 14.4463 9.98454C15.755 9.71679 17.0274 10.6222 17.1851 11.9329C17.3131 12.9984 16.6815 13.9998 15.6586 14.3502C15.6175 14.3643 15.5721 14.3715 15.5287 14.3718C15.3199 14.3739 15.1109 14.3729 14.9022 14.3729L14.9024 14.3731Z" fill="#36404E"/>
<path d="M3.95798 14.3728C3.74734 14.3728 3.53644 14.3733 3.32581 14.372C3.29367 14.372 3.25992 14.3669 3.22967 14.3568C2.27481 14.0384 1.63832 13.1404 1.66694 12.1531C1.69611 11.1461 2.37337 10.2882 3.35038 10.0205C4.69465 9.6519 6.06889 10.5557 6.24091 11.9214C6.37512 12.9884 5.74133 13.9978 4.71436 14.3498C4.67332 14.364 4.62795 14.3714 4.58447 14.3717C4.37573 14.3738 4.16699 14.3728 3.95798 14.3728Z" fill="#36404E"/>
</svg>
