<svg width="21" height="23" viewBox="0 0 21 23" fill="none" xmlns="http://www.w3.org/2000/svg">
<g clip-path="url(#clip0_2542_6759)">
<path d="M20.0307 8.96335C20.0307 7.50522 20.0315 6.04681 20.0301 4.5884C20.0298 4.12727 19.7008 3.82587 19.2234 3.8442C19.0558 3.85059 18.8878 3.86587 18.7201 3.86503C17.755 3.86031 16.8242 3.66864 15.9187 3.36056C14.1178 2.74776 12.5002 1.81854 11.0012 0.688207C10.6699 0.438194 10.3317 0.437916 10.003 0.685429C8.61522 1.73132 7.12202 2.60441 5.47556 3.21833C4.27882 3.66475 3.04894 3.93976 1.75079 3.84559C1.2933 3.81225 0.968615 4.13783 0.968615 4.5984C0.96775 7.33465 0.964293 10.0706 0.970055 12.8069C0.97236 13.9069 1.22243 14.9573 1.75367 15.9334C2.45806 17.2279 3.4275 18.323 4.55337 19.2916C6.22317 20.7284 8.14793 21.7465 10.2464 22.4688C10.3933 22.5193 10.5777 22.4996 10.7379 22.4732C10.8955 22.4471 11.0473 22.3779 11.1965 22.3157C11.7465 22.0865 12.3048 21.8726 12.841 21.6162C15.1362 20.5181 17.0869 19.0208 18.581 16.9918C19.5421 15.6862 20.0491 14.2511 20.033 12.6441C20.0209 11.4174 20.0307 10.1904 20.0307 8.96335ZM16.6519 13.3366C16.5413 14.2378 15.8187 14.8673 14.8479 14.8711C12.658 14.8803 10.4682 14.8781 8.27872 14.8725C7.60401 14.8709 6.92324 14.8928 6.25572 14.8181C5.0875 14.687 4.26931 13.7219 4.3422 12.6469C4.4197 11.5018 5.33728 10.6718 6.55275 10.6468C6.65243 10.6445 6.75211 10.6359 6.86216 10.6295C6.96703 9.57782 7.43864 8.77723 8.45302 8.3447C9.61087 7.85107 10.9076 8.1997 11.6589 9.20864C11.7909 9.38587 11.8911 9.48421 12.149 9.44087C13.5131 9.21225 14.5661 9.98173 14.7571 11.3212C14.7629 11.3615 14.7813 11.4001 14.8003 11.4601C14.9824 11.4854 15.1725 11.4935 15.3517 11.5399C16.1777 11.7538 16.7487 12.5499 16.6519 13.3366Z" fill="#37404E"/>
</g>
<defs>
<clipPath id="clip0_2542_6759">
<rect width="19.0667" height="22" fill="white" transform="translate(0.966797 0.5)"/>
</clipPath>
</defs>
</svg>
