<svg width="20" height="21" viewBox="0 0 20 21" fill="none" xmlns="http://www.w3.org/2000/svg">
<path d="M13.2919 3.73391C13.0733 3.97591 12.8879 4.18066 12.7031 4.3857C12.4344 4.68373 12.1627 4.97938 11.8993 5.28218C11.8177 5.37605 11.7338 5.41331 11.6074 5.41301C8.63665 5.40914 5.66616 5.40973 2.69536 5.41033C2.24957 5.41033 1.91589 5.61567 1.77055 5.99506C1.72398 6.11696 1.69729 6.25495 1.69699 6.38578C1.69284 9.2117 1.69343 12.0379 1.69462 14.8638C1.69462 15.4307 2.10364 15.8455 2.66511 15.8455C7.55375 15.8467 12.4421 15.8467 17.3307 15.8455C17.8925 15.8455 18.3015 15.4304 18.3018 14.8644C18.303 12.0385 18.303 9.2123 18.3018 6.38638C18.3018 5.87704 18.034 5.56441 17.4553 5.39751C17.6576 5.21273 17.8539 5.03332 18.0503 4.8542C18.2733 4.65065 18.4991 4.44978 18.7182 4.24175C18.782 4.18125 18.8262 4.18066 18.8938 4.23251C19.5624 4.74513 19.9536 5.41927 19.9575 6.26567C19.9714 9.1661 19.9667 12.0668 19.9613 14.9673C19.9589 16.222 18.9698 17.3288 17.727 17.4874C17.6 17.5035 17.4713 17.5139 17.3435 17.5139C12.4451 17.5151 7.54663 17.5157 2.6482 17.5148C1.18624 17.5148 0.0333349 16.3549 0.0333349 14.8877C0.0333349 12.0567 0.0330383 9.22571 0.0333349 6.39472C0.0333349 5.04524 0.939463 3.97204 2.26054 3.75865C2.38185 3.73898 2.50672 3.73451 2.63011 3.73451C6.11492 3.73331 9.59943 3.73361 13.0842 3.73391C13.1376 3.73391 13.1913 3.73391 13.2916 3.73391H13.2919Z" fill="#343F4C"/>
<path d="M10.0004 20.6098C6.98062 20.6098 3.96089 20.6098 0.940861 20.6098C0.500107 20.6098 0.167316 20.3758 0.0646906 19.9961C-0.0797559 19.4609 0.288331 18.9593 0.850397 18.9262C0.894887 18.9235 0.939378 18.9247 0.983869 18.9247C6.99397 18.9247 13.0038 18.9247 19.0139 18.9238C19.215 18.9238 19.4075 18.948 19.581 19.06C19.8912 19.2606 20.0324 19.6322 19.9348 19.9944C19.8399 20.3463 19.5264 20.5919 19.1491 20.6089C19.0949 20.6113 19.0403 20.6098 18.986 20.6098C15.9909 20.6098 12.9958 20.6098 10.0007 20.6098H10.0004Z" fill="#343F4C"/>
<path d="M16.183 1.97192C16.7613 2.55547 17.3181 3.11725 17.8798 3.68411C17.4168 4.10642 16.9452 4.53677 16.4733 4.96653C15.1371 6.18339 13.8006 7.39935 12.465 8.6168C12.1868 8.87042 11.8751 8.87996 11.5921 8.63051C11.4809 8.53246 11.3774 8.42487 11.2768 8.31549C11.076 8.09704 11.0013 7.72778 11.2804 7.4214C12.8951 5.64932 14.4965 3.86501 16.1017 2.08428C16.1346 2.04792 16.1595 2.00471 16.183 1.97192Z" fill="#343F4C"/>
<path d="M7.35352 12.4229C7.62283 11.7547 7.6783 11.0678 7.83639 10.4053C7.92982 10.014 8.04164 9.63009 8.25045 9.28229C8.63959 8.63437 9.33395 8.31429 10.0965 8.43082C10.768 8.53334 11.3532 9.06294 11.5223 9.72039C11.6234 10.1141 11.5362 10.4777 11.3381 10.8189C11.094 11.2392 10.7639 11.5747 10.3294 11.7977C9.40038 12.2742 8.3943 12.3767 7.35352 12.4229Z" fill="#343F4C"/>
<path d="M18.15 3.43614C17.5814 2.86332 17.0172 2.29468 16.4395 1.71233C16.5996 1.53351 16.7693 1.34307 16.9401 1.15353C17.2415 0.818837 17.5464 0.486832 17.8442 0.148866C17.9622 0.0147525 18.0945 -0.0263757 18.2671 0.0159446C18.5305 0.0806171 18.7467 0.22546 18.9351 0.410238C19.1608 0.631675 19.3827 0.858773 19.5894 1.09809C19.7353 1.26737 19.8498 1.46735 19.8466 1.70071C19.8451 1.79489 19.8092 1.91648 19.7442 1.97758C19.2175 2.47171 18.68 2.95452 18.1503 3.43643L18.15 3.43614Z" fill="#343F4C"/>
</svg>
