<svg width="20" height="22" viewBox="0 0 20 22" fill="none" xmlns="http://www.w3.org/2000/svg">
<path d="M12.0125 5.91708V0.0273703C11.8767 0.0129253 11.815 0.000406266 11.7533 0.000406266C8.30526 0.000406266 4.85724 -0.00248273 1.40922 0.00714727C0.598252 0.0100363 0 0.641764 0 1.4998C0.00664725 7.19402 0.0189921 12.8882 0.0389339 18.5825C0.0417827 19.3923 0.625791 19.9393 1.43676 19.9393C4.3473 19.9403 7.25785 19.9403 10.1674 19.9403C9.99082 19.3789 9.89585 18.7808 9.89585 18.1597C9.89585 14.925 12.4807 12.3027 15.6704 12.3027C16.4329 12.3027 17.1603 12.453 17.827 12.7255C17.8308 10.6444 17.8336 8.56244 17.8365 6.4814V5.91708H12.0125ZM4.3492 3.09356H5.82394V1.57106H7.06033V3.06275H8.56451V4.34257H7.08597V5.89686H5.83723V4.36761H4.3492V3.09356ZM2.47088 7.83923H15.3827V8.7223H2.47088V7.83923ZM9.81324 14.3038H2.45758V13.4121H9.81324V14.3038ZM15.3865 11.5227H2.46328V10.6329H15.3865V11.5227Z" fill="#37404E"/>
<path d="M12.9648 4.94534V0.197754C14.5118 1.79537 16.0701 3.40454 17.5628 4.94631H12.9648V4.94534Z" fill="#37404E"/>
<path d="M14.4599 21.9999C14.4076 21.9046 14.3544 21.8092 14.2918 21.6946C14.4152 21.6022 14.5463 21.5039 14.7049 21.3845C13.6793 21.2208 12.8427 20.7711 12.1855 19.9564C12.2843 19.8717 12.3783 19.7917 12.4799 19.7041C13.0696 20.4196 13.8018 20.8568 14.7438 20.9945C14.6422 20.8395 14.5605 20.7143 14.4684 20.5727C14.5767 20.5034 14.6802 20.436 14.7998 20.3599C15.0249 20.6893 15.2452 21.0099 15.4674 21.3345C15.1597 21.5608 14.8615 21.7794 14.5643 21.9989H14.4599V21.9999Z" fill="#37404E"/>
<path d="M10.7431 16.7842C10.84 16.7235 10.9369 16.6638 11.0461 16.5955C11.1391 16.7264 11.2322 16.8564 11.349 17.0201C11.4231 16.4857 11.5693 16.0177 11.8124 15.5824C12.0545 15.149 12.3613 14.7725 12.7601 14.446C12.8418 14.5443 12.9215 14.6396 13.007 14.7426C12.2929 15.3493 11.8532 16.0995 11.7326 17.075C11.8884 16.972 12.0147 16.8882 12.1524 16.7967C12.2245 16.8988 12.2948 16.997 12.3774 17.1136C12.0564 17.3399 11.7412 17.5614 11.4183 17.7886C11.1895 17.4728 10.9653 17.1646 10.7422 16.8555C10.7422 16.8324 10.7422 16.8083 10.7422 16.7852L10.7431 16.7842Z" fill="#37404E"/>
<path d="M14.7504 15.0027C15.0315 15.0027 15.2974 14.9988 15.5633 15.0075C15.6003 15.0084 15.6506 15.0662 15.6668 15.1076C15.6867 15.1596 15.6801 15.2232 15.6791 15.2819C15.6753 15.5208 15.7285 15.7037 16.0048 15.7615C16.1027 15.7827 16.1606 15.7846 16.2327 15.7201C16.3543 15.6123 16.4825 15.5131 16.6097 15.4081C16.8234 15.6334 17.0304 15.852 17.2498 16.0832C17.1596 16.1872 17.057 16.3124 16.9459 16.4289C16.8728 16.505 16.8804 16.5675 16.8994 16.6725C16.9535 16.9662 17.1548 16.9845 17.378 16.9932C17.4634 16.997 17.5499 17.0047 17.6458 17.0115V17.9408C17.4824 17.9552 17.3219 17.9755 17.1615 17.9803C17.0532 17.9832 17.0152 18.0352 16.9639 18.1286C16.8357 18.3616 16.8785 18.5388 17.0712 18.7035C17.1368 18.7593 17.1843 18.8364 17.2422 18.9067C17.0209 19.1205 16.8044 19.3294 16.5727 19.5538C16.473 19.4681 16.3476 19.367 16.2299 19.2572C16.1577 19.1908 16.0998 19.2004 16.0039 19.2196C15.7143 19.2774 15.6829 19.4748 15.6753 19.7137C15.6677 19.9929 15.7105 19.9737 15.4037 19.9746C15.1901 19.9746 14.9764 19.9746 14.7447 19.9746C14.7295 19.8013 14.7115 19.6405 14.7029 19.4787C14.6982 19.3805 14.6573 19.3371 14.569 19.2851C14.3459 19.1551 14.1778 19.1994 14.0183 19.3872C13.9594 19.4565 13.8796 19.5076 13.8084 19.5673C13.5909 19.3429 13.382 19.1262 13.1627 18.9009C13.2833 18.7536 13.4124 18.5956 13.5425 18.4367C13.4988 18.3164 13.4637 18.1921 13.4077 18.0795C13.3849 18.0342 13.3165 17.9957 13.2643 17.988C13.1047 17.9639 12.9424 17.9562 12.7695 17.9417V17.0163C12.931 16.9999 13.0905 16.9749 13.25 16.9701C13.3535 16.9662 13.4048 16.9306 13.4314 16.8285C13.4561 16.7332 13.5045 16.6446 13.5463 16.5444C13.42 16.3904 13.2909 16.2334 13.1608 16.0755C13.3801 15.8626 13.5957 15.6546 13.8283 15.4293C13.9195 15.5063 14.0468 15.6045 14.1636 15.7143C14.2414 15.7875 14.3022 15.7846 14.4048 15.7538C14.6422 15.6835 14.74 15.5497 14.7134 15.3012C14.7039 15.2107 14.7324 15.1153 14.7466 15.0017L14.7504 15.0027ZM15.9621 17.4776C15.9583 17.0462 15.6089 16.7033 15.1796 16.7072C14.7514 16.712 14.4152 17.0625 14.4199 17.5007C14.4247 17.936 14.7685 18.274 15.2024 18.2711C15.6278 18.2682 15.9659 17.9148 15.9621 17.4776Z" fill="#37404E"/>
<path d="M18.2373 18.2182C18.2164 18.196 18.1984 18.1806 18.1851 18.1613C18.1281 18.0804 18.073 17.9986 18.0065 17.9023C18.3275 17.6769 18.6428 17.4545 18.9732 17.2224C19.1964 17.5489 19.4129 17.8657 19.6427 18.2008C19.5487 18.2682 19.4575 18.3347 19.3493 18.4127C19.2486 18.2759 19.1518 18.143 19.034 17.9822C18.8707 19.0251 18.4263 19.8755 17.6058 20.5505C17.5859 20.5139 17.5745 20.486 17.5574 20.4629C17.5014 20.3888 17.4434 20.3175 17.377 20.2337C17.7245 19.9439 18.0141 19.6126 18.2307 19.2197C18.4434 18.8325 18.5896 18.4233 18.6456 17.9398C18.4918 18.0448 18.3655 18.1305 18.2382 18.2182H18.2373Z" fill="#37404E"/>
<path d="M18.2001 15.0248C18.0938 15.1134 18.0017 15.1905 17.901 15.2733C17.3142 14.5568 16.5811 14.1206 15.6343 13.9819C15.7407 14.1427 15.8252 14.2708 15.9154 14.4066C15.8119 14.4817 15.7141 14.553 15.6011 14.6358C15.3779 14.3093 15.1585 13.9896 14.9297 13.6545C15.2526 13.4272 15.564 13.2077 15.8945 12.9756C15.961 13.0709 16.0255 13.1634 16.1025 13.2732C15.9676 13.3752 15.8366 13.4735 15.6789 13.5929C16.7026 13.7575 17.5316 14.2198 18.2001 15.0239V15.0248Z" fill="#37404E"/>
</svg>
