<svg width="23" height="22" viewBox="0 0 23 22" fill="none" xmlns="http://www.w3.org/2000/svg">
<path d="M12.6348 0.0695801C17.6888 0.163934 22.9603 4.56318 22.9792 10.9757C22.9969 17.3257 17.8531 21.7863 12.6348 21.9491V0.0695801ZM16.9193 11.4888C16.5766 11.1066 16.3083 10.7681 15.9998 10.4721C15.6227 10.1112 15.1689 10.1112 14.8568 10.4568C14.5306 10.8188 14.5389 11.2163 14.8663 11.5619C15.4313 12.1587 16.0045 12.7507 16.6203 13.2921C16.7551 13.41 17.1841 13.4077 17.3106 13.2862C18.4689 12.1764 19.5941 11.0323 20.7205 9.89064C21.0207 9.58634 21.0455 9.22662 20.8009 8.87633C20.4782 8.41518 19.9735 8.41518 19.4995 8.88459C18.6675 9.71136 17.8472 10.5499 16.9205 11.4876L16.9193 11.4888Z" fill="#36404E"/>
<path d="M11.3869 0V21.9998C7.4876 22.021 4.32942 20.5396 2.12035 17.3635C-0.471675 13.6365 -0.696246 9.61937 1.49628 5.65179C3.59779 1.85051 6.98881 0.0577917 11.3869 0ZM5.42036 10.4296C5.79386 8.80321 6.1449 7.26996 6.49948 5.72374C5.77849 5.38878 4.99013 5.0208 4.18286 4.64575C2.72196 6.30402 1.85795 8.18402 1.74449 10.4296H5.42036ZM1.7303 11.5855C1.89223 13.8641 2.72433 15.763 4.19349 17.3705C5.03504 16.9754 5.82104 16.6075 6.49712 16.2902C6.13544 14.6968 5.78677 13.1624 5.42745 11.5855H1.7303ZM6.6555 11.6008C6.72996 13.1683 7.05027 14.6001 7.66489 15.9175C8.63409 15.7724 9.53829 15.6368 10.4578 15.5V11.602H6.6555V11.6008ZM6.50894 10.3966H10.4649V6.52339C9.5241 6.38186 8.60454 6.24386 7.51951 6.07993C7.19093 7.48108 6.85998 8.89521 6.50894 10.3966ZM5.00195 18.1395C6.23709 19.1715 7.51478 19.8308 9.03714 20.1327C8.33978 19.1373 7.69326 18.215 7.01718 17.2491C6.39311 17.525 5.75485 17.8069 5.00313 18.1395H5.00195ZM7.016 4.76841C7.71453 3.77415 8.35515 2.8601 9.06314 1.85169C7.51715 2.23737 6.20163 2.82 5.02559 3.8921C5.75485 4.2129 6.39311 4.49478 7.016 4.76959V4.76841ZM10.4508 5.42417V2.09466C9.49101 3.01107 8.75583 3.95343 8.14003 5.1187C8.96622 5.2272 9.67539 5.32156 10.4508 5.42299V5.42417ZM10.4614 16.5945C9.68485 16.7006 8.95558 16.7997 8.13176 16.9117C8.79247 18.0806 9.4981 19.0418 10.4614 19.9169V16.5957V16.5945Z" fill="#36404E"/>
</svg>
