<svg width="23" height="22" viewBox="0 0 23 22" fill="none" xmlns="http://www.w3.org/2000/svg">
<path d="M8.00709 16.5219H7.51052C7.4551 15.5313 7.39573 14.5534 7.84215 13.6328C8.2789 12.7319 8.96108 12.0707 9.94102 11.6424C9.31294 11.0036 8.96328 10.2785 9.09611 9.41089C9.18935 8.80358 9.49547 8.29471 9.99204 7.90879C10.935 7.1759 12.2827 7.25029 13.128 8.08731C14.1146 9.06435 14.0807 10.2912 13.0079 11.6336C15.0729 12.6242 15.6575 14.3477 15.4002 16.4904C15.3659 16.5053 15.3206 16.5407 15.2748 16.5416C15.1728 16.5433 15.0707 16.5276 14.9674 16.5193C14.9463 16.4462 14.9221 16.3981 14.9194 16.3495C14.8878 15.7383 14.9406 15.1091 14.813 14.5184C14.546 13.2792 13.7539 12.4571 12.5448 12.034C12.375 11.9745 12.2277 11.8502 12.0702 11.7561C12.2039 11.6126 12.3183 11.4415 12.4753 11.3308C13.1777 10.8351 13.4843 10.0335 13.2437 9.2595C12.9868 8.43254 12.2923 7.92411 11.4285 7.93111C10.606 7.93811 9.91551 8.46185 9.66876 9.26563C9.43434 10.0287 9.75277 10.8478 10.4499 11.3357C10.606 11.445 10.7173 11.6183 10.8497 11.7623C10.69 11.8546 10.5405 11.9754 10.3694 12.0344C8.91534 12.5376 8.0216 13.7654 8.00797 15.302C8.00445 15.6875 8.00753 16.073 8.00753 16.5219H8.00709Z" fill="#37404E"/>
<path d="M13.9508 2.48662C13.9508 3.15432 13.9371 3.82289 13.9561 4.49015C13.9662 4.83975 13.8162 4.95876 13.4863 4.95745C12.1259 4.95132 10.7655 4.95307 9.40515 4.95613C9.09947 4.95701 8.96224 4.83668 8.96488 4.51465C8.97588 3.14382 8.975 1.77298 8.96576 0.402148C8.96356 0.0989283 9.09727 0.00179295 9.38096 0.00266805C10.7589 0.00791861 12.1369 0.0118565 13.5149 4.27666e-05C13.876 -0.00302006 13.964 0.158435 13.9556 0.483094C13.9389 1.15035 13.9503 1.81892 13.9503 2.48662H13.9508ZM9.52566 4.4162H13.3847V0.508472H9.52566V4.4162Z" fill="#37404E"/>
<path d="M0 18.9733C0.0857667 18.7366 0.127111 18.5362 0.224313 18.3682C0.97862 17.0643 1.74084 15.7648 2.50659 14.4675C2.81447 13.9459 2.95345 13.9424 3.24858 14.4443C4.03059 15.7731 4.80997 17.1032 5.58495 18.4365C5.85808 18.9064 5.79387 19.0201 5.26168 19.0215C3.67433 19.025 2.08655 19.0236 0.499206 19.021C0.363299 19.021 0.226952 18.9961 0 18.9738L0 18.9733ZM2.88572 14.8481C2.15428 16.0973 1.46947 17.2673 0.751228 18.4942H5.02153C4.30241 17.2669 3.61759 16.0973 2.88572 14.8481Z" fill="#37404E"/>
<path d="M22.8809 16.5677C22.8814 17.9543 21.8077 19.0171 20.4012 19.0219C19.0184 19.0272 17.9254 17.9521 17.9065 16.5677C17.888 15.2192 19.0711 14.044 20.4302 14.0615C21.806 14.079 22.8805 15.1781 22.8809 16.5673V16.5677ZM20.3893 18.5135C21.4823 18.5192 22.3962 17.6284 22.3954 16.559C22.3945 15.4909 21.473 14.5826 20.3933 14.5848C19.3469 14.587 18.4294 15.4883 18.4145 16.5279C18.3991 17.6056 19.2963 18.5078 20.3893 18.5135Z" fill="#37404E"/>
<path d="M2.02965 12.7873C1.88143 12.81 1.74288 12.831 1.44336 12.8765C1.55815 11.8059 1.55815 10.7627 1.79742 9.77695C2.49191 6.91846 4.19361 4.79373 6.82335 3.34326C6.91791 3.49247 6.99576 3.61498 7.08285 3.75237C3.62667 5.7839 1.92189 8.75484 2.02965 12.7873Z" fill="#37404E"/>
<path d="M15.832 3.78132C15.9248 3.63037 15.9948 3.51617 16.0634 3.40503C19.4765 5.00995 21.7759 9.04676 21.333 12.8499C21.183 12.8272 21.0339 12.8048 20.8839 12.7821C21.004 8.7886 19.3001 5.82423 15.8325 3.78132H15.832Z" fill="#37404E"/>
<path d="M6.11177 20.4899C6.21645 20.3337 6.2987 20.2104 6.38094 20.0874C9.76543 21.9689 13.1292 21.9627 16.5322 20.0905C16.6114 20.1999 16.6989 20.3202 16.8084 20.472C15.8408 21.1021 14.8054 21.5226 13.6993 21.7518C11.0247 22.3058 8.49564 21.9522 6.11133 20.4908L6.11177 20.4899Z" fill="#37404E"/>
<path d="M9.52539 4.41628V0.508545H13.3845V4.41628H9.52539Z" fill="#37404E"/>
<path d="M2.88644 14.8481C3.61832 16.0973 4.30313 17.2669 5.02225 18.4942H0.751953C1.47063 17.2669 2.15545 16.0973 2.88644 14.8481Z" fill="#37404E"/>
<path d="M20.3871 18.5135C19.2942 18.5078 18.3969 17.6055 18.4123 16.5279C18.4273 15.4883 19.3447 14.5869 20.3911 14.5847C21.4709 14.5825 22.3923 15.4909 22.3932 16.5589C22.3941 17.6287 21.4801 18.5196 20.3871 18.5135Z" fill="#37404E"/>
</svg>
