<svg width="15" height="14" viewBox="0 0 15 14" fill="none" xmlns="http://www.w3.org/2000/svg">
<g clip-path="url(#clip0_2592_3006)">
<path d="M5.83587 0H0.766392C0.343125 0 0 0.321566 0 0.718237V5.45833C0 5.855 0.343125 6.17656 0.766392 6.17656H5.83587C6.25913 6.17656 6.60226 5.855 6.60226 5.45833V0.718237C6.60226 0.321566 6.25913 0 5.83587 0Z" fill="#37404E"/>
<path d="M14.2323 0H9.16288C8.73961 0 8.39648 0.321566 8.39648 0.718237V5.45833C8.39648 5.855 8.73961 6.17656 9.16288 6.17656H14.2323C14.6556 6.17656 14.9987 5.855 14.9987 5.45833V0.718237C14.9987 0.321566 14.6556 0 14.2323 0Z" fill="#37404E"/>
<path d="M14.2323 7.32324H9.16288C8.73961 7.32324 8.39648 7.64481 8.39648 8.04148V12.7816C8.39648 13.1782 8.73961 13.4998 9.16288 13.4998H14.2323C14.6556 13.4998 14.9987 13.1782 14.9987 12.7816V8.04148C14.9987 7.64481 14.6556 7.32324 14.2323 7.32324Z" fill="#37404E"/>
<path d="M5.83587 7.32324H0.766392C0.343125 7.32324 0 7.64481 0 8.04148V12.7816C0 13.1782 0.343125 13.4998 0.766392 13.4998H5.83587C6.25913 13.4998 6.60226 13.1782 6.60226 12.7816V8.04148C6.60226 7.64481 6.25913 7.32324 5.83587 7.32324Z" fill="#37404E"/>
</g>
<defs>
<clipPath id="clip0_2592_3006">
<rect width="15" height="13.5" fill="white"/>
</clipPath>
</defs>
</svg>
